<svg xmlns="http://www.w3.org/2000/svg" viewBox="0 0 1268.25 644.93">
  <defs>
    <style>
      .cls-1 {
        fill: #fff;
        stroke: #c2c1c1;
        stroke-linejoin: round;
        stroke-width: 2px;
      }
    </style>
  </defs>
  <title>Artboard 2</title>
  <g id="WAKU1">
    <polygon class="cls-1" points="960.27 98.86 949.49 92.17 951.35 98.12 960.27 98.86" />
    <polygon class="cls-1" points="943.55 100.35 942.8 93.29 927.94 88.46 930.17 95.89 943.55 100.35" />
    <polygon class="cls-1" points="943.92 118.18 948.01 106.67 929.43 108.15 943.92 118.18" />
    <polygon class="cls-1" points="940.95 129.33 936.49 137.13 952.09 140.47 950.61 127.47 940.95 129.33" />
    <polygon class="cls-1" points="976.99 105.92 1005.97 108.52 1060.58 61.34 1016.74 58.36 974.01 68.39 952.09 81.4 966.58 95.89 976.99 105.92" />
    <path class="cls-1" d="M1047.58,192.12,1061,164.25l-42.73-33.06-37.9-4.09-2.6,19.32,29.72,3.72,20.44,13.37s-13.38,13-14.49,13Z" />
    <path class="cls-1" d="M959.52,127.1l-3,12.63-1.48,11.15,11.14-.37-3.71-8.18s8.17-13.74,8.54-14.86Z" />
    <polygon class="cls-1" points="959.89 115.21 953.21 117.81 962.5 120.04 959.89 115.21" />
    <polygon class="cls-1" points="1007.45 115.95 998.16 111.5 979.96 114.47 969.56 107.04 955.81 105.92 963.24 110.01 969.18 120.04 1002.62 122.27 1007.45 115.95" />
    <polygon class="cls-1" points="1051.3 200.66 1041.63 206.98 1020.83 190.26 1005.97 237.82 988.5 221.84 962.13 209.95 997.05 179.86 1001.51 156.82 923.48 159.42 863.29 151.62 814.99 151.62 763.72 142.7 736.23 154.22 743.66 167.6 734.37 171.31 749.6 177.63 735.48 198.06 759.26 210.33 736.6 229.65 779.33 201.41 814.62 205.5 827.87 212.06 839.89 221.84 849.17 224.69 865.27 252.19 868.12 287.24 888.19 315.47 909.61 346.81 912.09 347.05 902.18 329.22 896.73 319.56 900.7 319.56 925.96 350.77 926.21 358.45 951.72 372.32 959.65 371.08 967.08 376.28 971.29 370.58 971.04 366.13 976.99 365.38 979.71 364.14 983.92 352.75 978.47 353 971.29 360.68 958.41 363.9 951.47 355.23 949.49 337.02 959.15 325.5 992.59 323.65 1000.02 339.25 1003.74 340 1001.14 321.42 1016 305.81 1027.52 285.75 1033.46 282.03 1034.58 276.46 1045.72 269.4 1054.64 270.89 1066.9 261.97 1050.55 251.2 1072.47 245.99 1069.87 256.03 1087.34 257.51 1081.02 241.91 1051.3 200.66"
    />
    <polygon class="cls-1" points="902.68 153.48 937.97 151.25 926.09 131.19 900.45 131.19 887.82 125.24 869.24 125.61 860.32 136.76 885.96 143.45 902.68 153.48" />
    <polygon class="cls-1" points="901.93 120.78 922.74 117.44 921.25 108.89 901.56 110.38 893.76 105.18 891.16 116.7 901.93 120.78" />
    <polygon class="cls-1" points="891.9 103.32 872.58 106.67 884.84 112.61 891.9 103.32" />
    <polygon class="cls-1" points="912.71 95.15 903.79 94.4 898.22 101.83 907.51 101.09 912.71 95.15" />
    <polygon class="cls-1" points="1168.7 55.27 1069.63 66.66 1033.46 96.39 1038.91 108.27 1069.63 112.73 1083 127.1 1089.94 162.77 1098.85 194.47 1118.67 202.9 1140.96 169.21 1184.06 145.43 1191 101.34 1215.77 69.14 1168.7 55.27" />
    <polygon class="cls-1" points="1013.03 359.19 1023.74 357.58 1010.61 351.39 999.03 347.55 992.41 349.84 991.66 352.07 1000.02 350.89 1008.2 352.69 1010.74 355.35 1013.83 356.4 1013.03 359.19" />
    <polygon class="cls-1" points="1034.51 358.94 1031.36 359.44 1026.15 359.25 1028.2 360.74 1028.69 362.85 1023.74 363.09 1023 364.14 1030.98 364.89 1032.22 366.13 1033.71 364.14 1041.08 364.02 1041.88 362.85 1040.46 361.79 1034.51 358.94" />
    <polygon class="cls-1" points="1010.98 363.59 1011.54 364.83 1014.02 365.88 1017.3 365.26 1015.38 363.77 1010.98 363.59" />
  </g>
  <g id="WAKU2">
    <path class="cls-1" d="M1144.19,438.8l-43.66-17.65-5.85-11.89v0l-7.8-4.92-9.75-.65-9.35-7.86-3.84-3.59-13.5-2.6-13-3.84-5.32,4,.74-4.77-.18-1.61-11.46,4.21-2.35,5.21-5.27,2.35L1011,393l-4-.46-4.27,2.13-2.05-.27-3.56-2.3-3-4.07,1.11-13.28L989,371.62l-9.57,1-1.85-.34,1.94-2.91.22-5.2L977,365.38l-6,.75.25,4.46-4.21,5.69,6.84,2.73,4.55,1.61,2.08.24.37-.89,1.08.46.37.87-.88.45,6,5.8.42,3.78,1.67-.43,6.38,5.38,2.81.19,2.88,2.14,2.61.37.09-2.42,2.23-1.86,2.88.19,2.69,4.74,2,10.71-5.26,7.49-3.78,2.67-2.29,9.1,1.73,3.78-3.59,3.71,3.35,5.33,12.88,21.79-.25,3,18.64,13.62-.68,26-3.35,17.09-.18,7.62L1026,545.65l-1.3,16.53-.74,8.36-3.72,11.33.37,18.21,5,13.56,9.1,6.13,9.29,2.78,1.3-2.41-4.09-1.3,12.45.37-12.63-9.29.18-1.79,6.69-21.8-2.23-7.43,6.69-12.63,1.11-6.32,6.69-.74,1.12-6.69,13.56-3.35,2.6-5.2-4.27-10.49,10.49,4,6-5.39-13.62-11.64h0l13.61,11.63L1103,514.23l1.85-10.41,20.07-8.54,9.29-29.73,12.26-17.46Z"
    />
    <polygon class="cls-1" points="1064.86 390.62 1065.02 388.83 1065.3 388.25 1063.23 388.74 1063.53 389.57 1062.35 390.69 1064.86 390.62" />
  </g>
  <g id="WAKU3">
    <polygon class="cls-1" points="565.95 116.82 553.81 109.39 541.42 111.25 546.01 121.28 565.95 116.82" />
    <path class="cls-1" d="M425,97.13,440.36,96l.25-3.59-9.41-3.84S425.63,97.13,425,97.13Z" />
    <polygon class="cls-1" points="582.79 120.66 584.4 117.69 572.39 114.96 570.03 115.95 575.48 120.66 582.79 120.66" />
    <path class="cls-1" d="M405.44,86.72l11.27,6,7.92-1,1.24-5.57L416.71,83S405.81,86.35,405.44,86.72Z" />
    <polygon class="cls-1" points="677.53 144.19 683.35 143.2 678.4 141.09 671.47 142.83 672.33 144.81 677.53 144.19" />
    <polygon class="cls-1" points="304.63 117.44 328.4 107.78 321.72 104.62 300.35 110.19 282.89 128.4 289.21 129.7 304.63 117.44" />
    <polygon class="cls-1" points="415.96 82.14 417.08 78.06 412.25 73.22 399.99 79.29 403.7 83.75 415.96 82.14" />
    <polygon class="cls-1" points="290.51 145.12 285.68 139.92 288.09 131.74 281.78 130.44 273.79 140.29 278.25 144.93 290.51 145.12" />
    <path class="cls-1" d="M668.74,152l-28.61,2.23-37.9-10-32.32-9.29-20.06,3.72-33.07,5.57-2.6-13-29.35-2.6-39.76,3.71,23.41-21.92-30.1-9.66-57.22,25.64-13.37,3.71-7.06,5.2-13.75-3-3,18.95-5.57,8.55V137.5l-8.18-4.08L321,152.74l-62.42,12.44-7.24-9.29-14.4,23.5-14.3,1.3-8.73-15.6L234,169.55l7.34-9-32.29-11.86-3.78,3.07-3.59,5.94,3.71,2.23-2,4.83,7.31,24.15-11.52,11.39,6.66,2.51-6.1,3-2,3.4,1,3.34L197.57,215l2.33,5.81,8.17,2,3.44,6.88,2.09,1.61-.13,1.85-2.47,1,.37,3.53,6.27-1.2,1.9,5,2.42.93,1.2,3.07,14.31,4.13L236.26,257l-3.62.79-1,2.28,3.05.53-4.27,1.79-.12,4.46-3,.43-.76,1.1,10.47,7.06,4.46,2.51,1.16,3.11-.59,1.64,4.09.31L248,284.2l.55,3.78,2.36.49,1.36,1.24-2.66,1.36,2.35,7.81,1.64,4.15,2.69.92-2,6.14,1.77,3.93,4.18,2.1,1.08,3.94,2.32,4.14,5-.74,3.78,6.32,11,6.93,6.93-3.16,1.18,4.9,13.56,2,14.74-.4,4.83,5.76,5.45,2.94L328,350.4l5,5.82,5.69-5.33,13,45,4.95,1.49,5.7-10.16,2-14.37,26.36-21.34,8-2.23,2.18,6.13,5.47,7.23,1.11,8.54,3.59.5,3.78-3.59,3.28,4.46,2.05,17.09-.19,6.5,5.51,5.63,3.55,11.74,6.64,4.46,2.65.09-2.19-4.74-.79-6.87-3.6-3.69-5.14-3.15-2.11-5.76-1.24-1.3,2.36-12.39,2.1-.37.5,2.48,5.38,2.23,2.05,3.84,3.84,1.23s1.24,5.58,1.11,5.76l13.25-9.78v-9l-4.15-5.94L442.9,362l2.79-5.45,4.67-3.16,8,1.3,9.38-4.83,8.36-1.11,17.4-24.22-7.55-17.33,8.42-7.44-15.11-5.2,12.14-8.17,2.23,4.21,7.79-2.09,2.87,2.32-1.43,4.79,5.61,1.34.28,5.85-.14,6.09,8.55-2.74-.23-6.88-3-5.52-3-2.56,3.44-3.16,3.94-2.83.19-3.2,2.85-2.58,3.19-3.27,9.75.32,17.46-29.35-.37-17.46-14.86-6,23.41-17.09,31.58.74L605.21,194l22.66-3.35-12.26,14.12-16,17.46,4.09,19.33L620.81,223l-1.49-12.26,12.27-8.55,40.12-11.89-4.08-8.91L678,170.94l17.09,8.55L705.89,168ZM273.29,301.23l-8.36-6.81.53-2.39.46.13,1.27-4.43,2.26-.68-2.23-1.11-3.06-4.4h0L258.55,270l6.69-6.5,8.18-2.6,4.83,2.41-7.81,8.55,5.95,8.91,3.71,10.9.25,6.63Z"
    />
    <polygon class="cls-1" points="559.51 259.74 560.81 251.57 560.81 241.35 559.69 227.97 555.23 231.88 556.16 264.01 559.51 259.74" />
    <polygon class="cls-1" points="533.5 310.77 531.14 309.65 526.44 311.39 527.43 314.85 531.27 312.5 533.5 310.77" />
    <polygon class="cls-1" points="547.8 296.15 536.28 304.51 528.11 305.07 523.09 309.34 532.38 308.97 537.21 311.2 553.56 304.14 555.42 284.26 550.77 285.94 547.8 296.15" />
    <polygon class="cls-1" points="550.96 279.25 561.92 279.62 568.61 273.67 556.16 267.36 550.96 279.25" />
    <polygon class="cls-1" points="525.32 311.39 521.73 310.52 518.76 313.37 519.38 319.19 522.97 319.06 525.32 311.39" />
    <path class="cls-1" d="M493.8,342.35l-1.3-1.67-2.66,2.78-1.36,5,1.92,3.34S493.74,342.53,493.8,342.35Z" />
    <polygon class="cls-1" points="362.63 392.48 361.75 398.88 363.14 403.48 365.75 403.44 368.35 400.65 363.98 391.78 362.63 392.48" />
    <polygon class="cls-1" points="458.75 357.64 454.61 358.39 452.75 360.74 452.5 363.22 455.72 364.21 459.31 360 458.75 357.64" />
    <polygon class="cls-1" points="504.33 449.69 503.15 450.6 501.78 451.34 500.94 451.6 500.31 452.11 499.18 453.13 499.45 455.22 501.85 454.22 503.7 452.36 510.46 449.09 509.63 448.72 504.33 449.69" />
    <polygon class="cls-1" points="475.81 448.42 475.35 450.13 476.9 450.59 477.36 448.89 476.68 448.3 475.81 448.42" />
    <polygon class="cls-1" points="471.11 448.12 471.33 448.86 472.72 450.1 474.36 448.89 474.14 448.18 471.11 448.12" />
    <polygon class="cls-1" points="481.67 448.21 481.36 448.83 481.54 449.42 478.23 449.11 478.05 450.87 479.47 451.02 482.6 450 484.42 449.91 484.21 448.67 481.67 448.21" />
    <polygon class="cls-1" points="465.97 445.14 468.01 444.89 469.16 444.21 467.76 443.69 465.29 444.34 465.97 445.14" />
    <polygon class="cls-1" points="465.26 445.51 462.72 444.03 456.4 444.15 448.29 441.61 443.71 440.99 442.41 443.72 451.01 446.57 470.52 449.66 470.09 447.06 465.26 445.51" />
    <path class="cls-1" d="M457.52,431.39l18.3,2.23c.23-.09,5.38-14.49,5.38-14.49l1.81-.83-2.27-9.2,4.27-3-7-5.67-5.38,5.3-3.53,2.51-3.84,4.52-4,1-1.58,3.56-4.52-.9-2.24,4.49Z" />
    <polygon class="cls-1" points="443.77 432.97 439.68 426.38 429 416.44 418.04 406.59 410.52 404.83 411.72 408.36 420.73 417.09 426.96 427.59 438.1 440.4 442.84 440.59 443.77 432.97" />
    <polygon class="cls-1" points="485.15 452.04 484.99 452.99 487.52 453.41 489.31 454.78 490.28 453.64 488.17 451.97 485.15 452.04" />
    <polygon class="cls-1" points="517.4 431.39 513.25 431.52 514.12 433 518.02 432.82 521.61 434.37 520.87 432.14 517.4 431.39" />
    <polygon class="cls-1" points="509.84 433.75 509.6 432.2 506.68 431.95 507.74 433.69 509.84 433.75" />
    <polygon class="cls-1" points="446.37 430.84 444.14 427.49 441.85 428.11 443.21 429.48 444.76 431.58 446.37 430.84" />
    <polygon class="cls-1" points="495.76 449.11 493.16 449.23 491.49 449.28 489.47 448.32 487.26 449.09 487.24 450.04 492.16 450.3 496.32 449.62 497.16 448.18 496.51 448.46 495.76 449.11" />
    <polygon class="cls-1" points="522.4 447.37 523.65 447.09 524.53 445.51 524.25 444.68 522.4 447.37" />
    <polygon class="cls-1" points="514.83 421.46 513.99 420.3 515.15 417.88 512.55 419.23 512.69 416.67 512.64 415.6 511.67 416.35 511.34 419.46 513.06 425.08 512.6 421.46 514.83 421.46" />
    <polygon class="cls-1" points="495.97 440.03 496.76 440.08 497.46 437.99 497.69 436.23 497.09 436.64 495.97 440.03" />
    <polygon class="cls-1" points="495.37 437.43 494.95 439.01 495.69 439.1 496.44 437.06 495.37 437.43" />
    <polygon class="cls-1" points="498.76 418.86 491.05 418.48 486.87 421.27 485.01 431.67 486.4 434.65 486.13 439.85 488.82 439.75 489.1 431.39 490.31 430.75 493.46 436.69 496.62 435.48 492.72 429.07 496.53 425.45 490.96 426.19 488.26 422.94 490.77 420.81 498.76 420.99 503.5 417.37 498.76 418.86"
    />
    <polygon class="cls-1" points="533.62 431.39 531.76 425.08 529.66 424.09 524.95 424.34 522.6 427.43 529.78 429.54 526.19 431.77 532.38 434.99 543.78 440.06 545.63 447.25 553.44 451.21 553.44 430.65 543.03 427.68 533.62 431.39" />
    <polygon class="cls-1" points="498.32 391.98 498.42 392.75 499.72 390.49 500.49 387.06 499.97 387.83 498.32 391.98" />
    <polygon class="cls-1" points="505.54 387 504.52 383.19 501.82 383.09 503.4 386.25 505.54 387" />
    <polygon class="cls-1" points="493.83 389.41 495.79 388.57 497.55 386.25 494.02 384.95 493.83 389.41" />
    <polygon class="cls-1" points="502.61 388.85 502.71 390.57 504.1 389.88 503.26 387.88 502.94 386.53 501.64 386.67 502.61 388.85" />
    <polygon class="cls-1" points="499.97 391.67 500.93 392.29 501.88 391.79 501.98 391.02 501.05 390.59 499.97 391.67" />
    <polygon class="cls-1" points="491.51 383.93 492.26 382.63 492.16 380.49 489.19 379.94 491.51 383.93" />
    <polygon class="cls-1" points="501.08 396.75 496.71 396.75 493.46 400.46 497.27 398.98 500.52 399.81 501.64 403.25 504.8 403.99 504.7 401.39 505.91 399.81 508.05 401.02 506.28 392.2 501.08 396.75" />
    <polygon class="cls-1" points="488.08 375.38 489.93 376.22 490.21 378.82 493.19 378.36 498.11 379.29 500.43 381.24 498.76 378.54 493.65 377.43 492.26 374.27 495.14 368.88 495.14 364.14 490.68 363.12 488.82 371.39 487.8 372.13 488.08 375.38" />
    <polygon class="cls-1" points="486.13 387.18 479.62 396 486.87 389.13 486.13 387.18" />
    <polygon class="cls-1" points="500.34 384.39 498.06 382.63 497.78 384.44 498.76 384.02 500.34 384.39" />
    <polygon class="cls-1" points="495.32 392.15 497.78 393.73 497.74 392.1 498.62 388.9 498.25 387.69 496.76 390.66 495.32 392.15" />
    <polygon class="cls-1" points="177.6 225.19 174.91 225.65 174.09 226.92 182.26 227.66 183.22 225.65 178.39 224.17 177.6 225.19" />
  </g>
  <g id="WAKU4">
    <polygon class="cls-1" points="558.95 456.47 552.26 478.77 536.1 469.66 538.14 461.12 525.88 459.07 516.59 467.62 508.98 466.51 493.19 481.74 467.55 495.67 474.05 538.59 523.28 525.95 537.03 535.43 542.6 531.53 551.7 549.73 580.68 548.43 593.32 509.23 573.44 485.27 558.95 456.47"
    />
    <polygon class="cls-1" points="569.72 569.61 574.74 567.2 576.04 560.51 565.08 559.21 569.72 569.61" />
    <polygon class="cls-1" points="647.44 567.01 632.82 579.02 644.09 583.11 651.52 571.47 658.46 562.3 653.26 558.46 647.44 567.01" />
    <polygon class="cls-1" points="664.4 547.81 654.87 537.41 659.95 546.33 656.97 553.63 660.07 556.23 660.07 560.57 662.92 561.19 670.35 548.18 664.4 547.81" />
    <path class="cls-1" d="M583.9,441.8l4.28-2.23,1-3.72-2-.06s-2.91,4.06-3.34,4.12-6.22-.22-6.22-.22l-1.06.62,1.92,1.24Z" />
    <polygon class="cls-1" points="563.22 446.75 568.3 446.38 575.48 454.31 583.41 455.17 573 443.9 574 441.92 567.8 436.72 553.44 430.65 553.44 451.21 560 451.33 563.22 446.75" />
  </g>
  <g id="WAKU5">
    <polygon class="cls-1" points="169.06 214.46 168.78 216.22 169.01 217.48 170.96 215.48 171.47 213.39 170.22 213.39 169.06 214.46" />
    <polygon class="cls-1" points="166.41 199.43 167.03 191 179.29 181.1 179.29 174.78 186.85 171.44 191.31 174.41 178.67 188.9 179.04 199.68 184.37 203.64 199.23 200.29 210.75 188.9 203.44 164.75 205.42 159.92 201.71 157.69 205.3 151.75 209.08 148.68 206.79 145.43 183.5 146.91 160.59 158.06 140.9 184.19 127.65 192.62 128.64 209.34 134.21 212.68 144.61 205.5 146.84 207.23 147.83 208.22 152.17 220.48 154.65 223.58 158.24 220.98 161.95 219.99 164.43 210.33 171.24 203.64 166.41 199.43"
    />
    <path class="cls-1" d="M198.74,212.55l-1-3.34,2-3.4-8.18-.62-6.13,2,.87,3.65,2,.37-.38,2.28.32,2.42-1,1.2-2,0-3.06-3s-2.6,1.16-2.74,1.2-1.63,2.84-1.63,2.84l.1,3,.41,3.07,4.83,1.48-1,2,3,1.74,6.76-1.15,3-5.57,4.93-1.9L197.57,215Z" />
    <polygon class="cls-1" points="181.83 212.03 184.8 210.6 183.94 210.05 182.57 209.89 180.44 210.54 181.15 212.12 181.03 212.87 181.83 212.03" />
    <polygon class="cls-1" points="183.13 208.87 183.87 208.9 183.81 208.41 182.82 207.76 180.93 208.34 182.6 209.27 183.13 208.87" />
    <path class="cls-1" d="M49,169.83l-3.71,3.34-3.16-5-5.39,4.27,5.2.56-1.67,4.08c.56.19,10.22,8.92,10.22,8.92L62,182.65l6.87-8-7.62-7.25Z" />
  </g>
  <g id="WAKU6">
    <polygon class="cls-1" points="148.39 226.64 148.61 226.12 146.69 225.59 146.56 226.4 147.49 226.74 148.39 226.64" />
    <polygon class="cls-1" points="145.51 226.15 146.07 225.03 145.11 225.96 145.51 226.15" />
    <polygon class="cls-1" points="142.82 223.84 144.03 224.96 145.42 224.96 145.65 223.56 143.61 223 142.82 223.84" />
    <polygon class="cls-1" points="151.36 221.1 148.34 221.33 146.63 222.59 149.13 225.93 151.36 221.1" />
    <polygon class="cls-1" points="138.67 279.37 140.34 283.15 141.76 280.3 141.27 276.96 138.67 279.37" />
    <polygon class="cls-1" points="116 241.91 116.75 234.85 112.29 232 107.71 225.81 103 220.6 105.35 214.41 100.03 214.16 102.26 209.71 94.58 211.32 94.7 221.22 96.81 226.55 100.15 226.3 102.63 229.77 96.68 239.06 101.14 240.67 95.07 246.12 116 241.91"
    />
    <polygon class="cls-1" points="90.37 224.57 87.15 224.07 83.93 227.79 81.33 229.27 82.32 232.49 80.96 236.46 80.09 240.05 91.98 236.95 92.6 229.27 94.21 227.04 92.72 224.44 90.37 224.57" />
    <polygon class="cls-1" points="154.86 228 154.65 227.39 154.55 226.64 153.56 226.64 153.34 228.13 154.15 228.13 154.86 228" />
    <polygon class="cls-1" points="158.24 242.77 156.75 229.89 151.43 227.79 145.36 228.53 142.01 226.55 142.45 223.14 145.37 220.08 144.63 218.69 144.72 214.18 138.92 217.01 137.52 221.29 139.16 226.05 139.66 229.27 133.96 232.37 130.46 232.11 127.03 234.1 123.13 239.96 125.68 240.75 122.43 240.98 119.78 242.32 117.06 243.27 115.94 247.36 111.05 250.51 105.97 248.78 107.03 252.87 96.68 253.73 98.17 257.02 103.74 258.44 108.02 263.52 107.89 270.21 106.41 275.41 121.7 279.25 123.87 274.85 130.87 276.46 135.67 273.67 133.62 269.87 134.06 265.1 136.35 264.79 137.99 263.18 139.81 264.45 140.99 262.71 143.19 263.3 144.4 262.44 144.37 260.98 141.95 260.42 141.89 258.38 151.67 258.01 152.54 255.65 156.5 253.67 150.06 246.74 158.24 242.77"
    />
  </g>
  <g id="WAKU7">
    <polygon class="cls-1" points="215.24 305.6 213.38 306.68 213.6 307.89 215.24 308.29 218.49 306.93 218.4 305.69 220.07 304.54 215.24 305.6" />
    <polygon class="cls-1" points="252.3 289.71 250.94 288.47 248.58 287.98 248.03 284.2 246.17 282.96 242.08 282.65 229.57 284.26 217.31 280.55 209.2 284.42 203.07 284.11 202.82 284.73 205.24 286.03 196.09 287.1 194.18 288.77 194 290.67 195.95 290.67 196.23 293.46 195.02 295.22 197.44 296.43 196.78 297.55 199.48 300.24 205.98 302.38 208.49 300.15 214.43 302.84 224.74 300.15 224.37 303.21 225.92 303.27 226.85 300.74 244.5 299.37 249.45 298.51 250.57 299.5 251.99 298.88 249.64 291.07 252.3 289.71"
    />
    <polygon class="cls-1" points="151.67 295.66 151.12 297.08 159.04 300.67 159.17 298.07 160.65 295.29 156.19 295.9 151.67 295.66" />
    <polygon class="cls-1" points="137.93 285.32 138.11 290.21 138.92 292.5 142.07 291.38 142.32 286.62 141.33 284.2 137.93 285.32" />
    <polygon class="cls-1" points="192.09 299.52 191.65 299.1 191.4 299.54 191.72 299.91 192.09 299.52" />
    <polygon class="cls-1" points="184.8 296.11 187.45 296.99 186.75 295.13 182.85 293.09 184.29 291.23 182.43 287.33 183.64 286.63 185.45 288.49 186.34 287.47 186.75 285.98 191.03 285.01 193.39 285.7 195.36 286.27 194.12 288.23 197.99 284.94 202.51 284.63 202.79 283.86 199.85 282.19 199.48 280.92 198.32 279.06 201.38 274.05 202.5 269.91 204.17 269.54 204.87 267.96 204.82 265.96 207.05 264.85 208.49 262.34 211.51 261.88 211.74 263.83 217.41 264.62 214.01 267.4 216.66 268.47 217.03 271.17 225.49 268.66 225.91 267.4 222.28 267.13 221.54 263.36 231.66 260.02 232.64 257.74 236.26 256.95 237.47 249.57 223.16 245.44 221.96 242.37 219.54 241.44 217.64 236.43 211.37 237.63 211 234.1 213.47 233.11 213.6 231.26 211.51 229.65 208.07 222.77 199.9 220.78 194.97 222.68 192 228.25 185.24 229.4 182.26 227.66 174.09 226.92 170.13 227.91 169.14 225.93 156.75 229.89 158.24 242.77 150.06 246.74 156.46 253.62 152.54 255.65 151.67 258.01 141.89 258.38 141.95 260.42 144.37 260.98 144.4 262.44 143.19 263.3 140.99 262.71 139.81 264.45 137.99 263.18 136.35 264.79 134.06 265.1 133.62 269.87 135.67 273.67 139.29 271.54 143.75 273.12 150.53 282.13 159.35 287.33 161.58 290.39 162.42 292.99 161.02 295.6 162.97 295.87 165.67 291.6 164.09 289.46 164.93 287.51 169.38 288.81 169.48 287.51 161.58 282.5 162.42 281.38 156.84 279.8 154.15 274.79 150.9 272.28 150.44 267.17 154.49 265.75 155.2 266.62 154.34 267.79 155.26 269.46 156.88 267.92 158.42 269.34 159.54 272.31 162.51 274.91 166.91 277.08 167.4 277.45 169.66 278.72 169.85 279.17 170.35 279.21 172.44 281.34 173.01 282.19 172.79 287.24 174.59 289.77 178.07 294.53 182.71 294.81 184.15 295.6 183.5 296.15 179.6 295.08 178.12 296.48 180.21 300.1 184.11 301.17 183.36 297.96 184.85 298.15 184.15 296.71 184.8 296.11"
    />
    <polygon class="cls-1" points="193.78 294.17 193.01 294.02 193.35 295.47 193.78 294.17" />
    <polygon class="cls-1" points="183.85 302.54 184.06 302.75 184.15 302.42 183.85 302 183.85 302.54" />
    <polygon class="cls-1" points="174.16 289.44 173.48 289.39 173.43 289.62 173.99 290.37 174.69 290.79 174.08 289.85 174.16 289.44" />
    <polygon class="cls-1" points="176.39 294.5 175.98 294.86 175.6 295.23 176.09 295.49 176.93 295.7 176.39 294.5" />
    <polygon class="cls-1" points="176.7 293.01 176.25 293.36 176.35 293.94 176.75 293.53 176.7 293.01" />
    <polygon class="cls-1" points="176.6 296.65 176.96 297.22 177.54 296.98 176.79 296.42 176.6 296.65" />
    <polygon class="cls-1" points="195.18 292.07 194.34 291.01 192.91 291.48 193.81 292.44 195.18 292.07" />
    <polygon class="cls-1" points="185.96 304.74 185.78 305.81 189.59 307.07 193.72 306.88 194.18 305.95 191.44 305.77 185.96 304.74" />
    <polygon class="cls-1" points="190.54 289.23 190.96 289.16 191.31 289.28 191.51 288.54 190.54 288.68 190.54 289.23" />
    <polygon class="cls-1" points="195.25 296.92 195.93 297.13 196.58 297.08 196.18 296.73 195.25 296.92" />
    <polygon class="cls-1" points="199.11 302.35 198.83 303.43 199.82 303.06 200.28 302.04 200.07 301.73 199.11 302.35" />
    <polygon class="cls-1" points="196.77 304.64 196.93 305.34 197.18 305.16 197.14 303.99 196.77 304.64" />
    <polygon class="cls-1" points="193.37 297.66 193.97 297.57 194.35 297.31 193.81 297.31 193.37 297.66" />
    <polygon class="cls-1" points="191.98 286.58 191.75 286.79 192.05 287.05 192.35 286.86 191.98 286.58" />
    <polygon class="cls-1" points="189.54 285.98 189.1 285.63 188.7 285.89 188.8 286.35 189.26 286.35 189.54 285.98" />
    <polygon class="cls-1" points="190.1 297.12 190.19 296.91 190.04 296.51 189.49 296.17 189.62 296.8 190.1 297.12" />
    <polygon class="cls-1" points="184.86 292.41 183.94 292.84 186.66 294.63 188.43 295.97 187.56 293.95 185.64 293.21 184.86 292.41" />
    <polygon class="cls-1" points="188.77 293.06 189.12 292.95 188.68 292.41 188.77 293.06" />
    <polygon class="cls-1" points="121.7 279.25 106.41 275.41 88.26 274.48 84.42 275.84 83.8 280.67 83.06 291.82 83.56 298.13 88.63 298.51 91.11 299.87 93.96 302.96 104.73 300.24 110.56 293.8 111.55 288.72 120.09 282.53 121.7 279.25" />
    <polygon class="cls-1" points="119.6 289.98 120.25 290.58 121.83 290.76 122.66 289.7 121.45 288.86 119.6 289.98" />
  </g>
  <g id="WAKU8">
    <polygon class="cls-1" points="263.23 325.38 263.26 324.98 262.7 324.51 262.7 325.26 263.23 325.38" />
    <polygon class="cls-1" points="291.19 345.38 288.46 341.61 288.37 339.25 288.71 337.7 288.53 336.9 287.54 337.83 281.75 344.36 274.78 345.07 273.45 343.93 272.64 343.06 273.54 341.14 273.14 338.01 271.65 337.64 270.88 340.52 271.09 342.29 263.57 329.13 262.15 326.4 261.65 325.97 262.52 325.35 262.21 324.2 263.63 324.2 261.31 320.06 260.23 316.12 256.05 314.02 254.28 310.08 256.32 303.95 253.63 303.03 251.99 298.88 250.57 299.5 249.45 298.51 244.5 299.37 226.85 300.74 225.92 303.27 224.37 303.21 224.62 308.04 221.9 313.62 220.41 317.83 219.05 319.75 221.25 325.88 221.43 326.43 220.66 330.33 229.57 343.15 234.4 350.03 237.19 358.01 246.48 369.9 248.15 381.89 261.9 378.22 275 372.64 278.06 369.59 283.57 368.23 285.37 365.88 292.43 362.04 293.6 357.09 299.36 350.21 291.19 345.38"
    />
  </g>
  <g id="WAKU9">
    <path class="cls-1" d="M251.12,389.22l-3.85-3.06-1.67-.47,2.09-1.9-.78-1.44-6.13-5.88-5-3.28-3-7.93-5.66-13.38L213.47,326l.13-1.61,5.57,7.18,2.07-5.69-2.19-6.13-4.77.49-4.4-1.49-6.81,2.61-12.38-2.85-14-3.5-3.25,8.08L161.3,320l-1.86-3.71-11.33-2.88-4.64-3.16,3-4.92-1.67-3.25,1.86-2.05-3.81-1.76L138.64,300,117,301.35l-11.65,5.21-7.06-.5-3.09-2.23-3.84,6.94-8,5.2-2,8.17-9.17,6.69-1.36,1.42-5.64,10L62.47,345l-3.9,9.2,2.2,5.85-.62,10-.74,3.78-2.51,1.86L60,379.47,59.5,381v2.35l2.26,1.58,3,3,5.7,6.13,1.3,4.18,4,2.56,12.4,7.94,7-2.23,7.29,0,3,.78,10-3.9,2-.8,2.85-.13,6.87.75,3.22,4.95,8.42-.49,3.59,4.21.44,3.59-.93,3.81-2.23,5.48,6.87,9.75,2.88,3.81.75,2.29.62.56,3.37,20.18-5.51,16.23,8.3,17.21,2,13.87,4.39,7.37,1-.74-1,.74,5.76,11.27-1.23,3.16,5.57,6.57,17.34-2.11,13.43-7.55,9.11-11.58,1.67-6.2h0l.12-4.46,8.3-4.33L221,485.83l18.34-16.63-.69-13.65-4-8.83-.09-9.63,7.43-9.6L260,411l11.52-19.51.83-6.59ZM211.93,501h0l-.13,5.63Z"
    />
    <polygon class="cls-1" points="257.32 472.02 250.26 474.25 249.76 488.49 247.9 494.93 250.01 503.97 259.42 502.61 268.34 474.37 266.6 460.5 257.32 472.02" />
  </g>
</svg>