<?xml version="1.0" encoding="utf-8"?>
<!-- Generator: Adobe Illustrator 23.1.1, SVG Export Plug-In . SVG Version: 6.00 Build 0)  -->
<svg version="1.1" xmlns="http://www.w3.org/2000/svg" xmlns:xlink="http://www.w3.org/1999/xlink" x="0px" y="0px"
	 viewBox="0 0 595.28 841.89" style="enable-background:new 0 0 595.28 841.89;" xml:space="preserve">
<style type="text/css">
	.st0{fill:#D51C19;}
	.st1{fill:none;}
</style>
<g id="アフリカ">
	<g>
		<path class="st0" d="M-743.76,471.6l-3.85-3.07l-1.67-0.46l2.09-1.9l-0.77-1.44l-6.13-5.88l-5.02-3.28l-2.94-7.93l-5.67-13.38
			l-13.69-25.88l0.12-1.61l5.57,7.18l2.07-5.7l-2.2-6.13l-4.77,0.5l-4.4-1.49l-6.81,2.6l-12.38-2.85l-13.96-3.5l-3.25,8.08
			l-12.17-3.07l-1.86-3.72l-11.33-2.88l-4.64-3.16l2.97-4.92l-1.67-3.25l1.86-2.04l-3.81-1.76l-4.18,1.67l-21.64,1.39l-11.64,5.2
			l-7.06-0.5l-3.1-2.23l-3.84,6.94l-8.05,5.2l-1.98,8.17l-9.16,6.69l-1.36,1.42l-5.64,9.97l-2.69,2.79l-3.9,9.2l2.2,5.85
			l-0.62,10.03l-0.74,3.78l-2.51,1.86l3.07,3.75l-0.46,1.52v2.35l2.26,1.58l3,3l5.7,6.13l1.3,4.18l3.99,2.55l12.4,7.94l7.01-2.23
			l7.29-0.05l3.02,0.79l9.97-3.9l1.98-0.8l2.85-0.12l6.87,0.74l3.22,4.95l8.42-0.5l3.59,4.21l0.43,3.59l-0.93,3.81l-2.23,5.48
			l6.87,9.75l2.88,3.81l0.74,2.29l0.62,0.56l3.37,20.19l-5.51,16.22l8.3,17.21l1.98,13.87l4.4,7.37l0.64-0.49l-0.64,0.49l5.76,11.27
			l-1.24,3.16l5.57,6.56l17.34-2.11l13.44-7.55l9.1-11.58l1.67-6.19h0l0.12-4.46l8.3-4.33l-2.35-14.92l18.35-16.63l-0.7-13.65
			l-3.99-8.82l-0.09-9.63l7.43-9.6l18.02-16.53l11.52-19.51l0.84-6.59L-743.76,471.6z M-782.96,583.37L-782.96,583.37l-0.12,5.64
			L-782.96,583.37z M-823.21,599.22L-823.21,599.22l2.72-1.49L-823.21,599.22z"/>
		<polygon class="st0" points="-737.57,554.39 -744.63,556.62 -745.12,570.86 -746.98,577.3 -744.88,586.34 -735.46,584.98 
			-726.55,556.74 -728.28,542.87 		"/>
	</g>
</g>
<g id="WAKU">
	<rect x="-994.89" y="82.37" class="st1" width="1268.25" height="644.93"/>
</g>
</svg>
