<?xml version="1.0" encoding="utf-8"?>
<!-- Generator: Adobe Illustrator 23.1.1, SVG Export Plug-In . SVG Version: 6.00 Build 0)  -->
<svg version="1.1" xmlns="http://www.w3.org/2000/svg" xmlns:xlink="http://www.w3.org/1999/xlink" x="0px" y="0px"
	 viewBox="0 0 595.28 841.89" style="enable-background:new 0 0 595.28 841.89;" xml:space="preserve">
<style type="text/css">
	.st0{fill:#D51C19;}
	.st1{fill:none;}
</style>
<g id="アジア">
	<g>
		<polygon class="st0" points="-428.94,199.19 -441.08,191.76 -453.46,193.62 -448.88,203.65 		"/>
		<polygon class="st0" points="-412.1,203.03 -410.49,200.06 -422.5,197.34 -424.85,198.33 -419.4,203.03 		"/>
		<path class="st0" d="M-569.88,179.5l15.36-1.11l0.25-3.59l-9.41-3.84C-563.69,170.96-569.26,179.5-569.88,179.5z"/>
		<polygon class="st0" points="-704.38,227.49 -709.21,222.29 -706.79,214.12 -713.11,212.82 -721.1,222.66 -716.64,227.31 		"/>
		<polygon class="st0" points="-690.26,199.81 -666.48,190.15 -673.17,187 -694.53,192.57 -712,210.77 -705.68,212.07 		"/>
		<polygon class="st0" points="-578.92,164.52 -577.81,160.43 -582.64,155.6 -594.9,161.67 -591.18,166.13 		"/>
		<path class="st0" d="M-589.45,169.1l11.27,5.94l7.93-0.99l1.24-5.57l-9.16-3.1C-578.18,165.38-589.08,168.73-589.45,169.1z"/>
		<polygon class="st0" points="-317.35,226.57 -311.53,225.57 -316.49,223.47 -323.42,225.2 -322.55,227.18 		"/>
		<polygon class="st0" points="-435.38,342.12 -434.08,333.94 -434.08,323.72 -435.19,310.35 -439.65,314.25 -438.72,346.39 		"/>
		<path class="st0" d="M-326.15,234.37l-28.61,2.23l-37.9-10.03l-32.32-9.29l-20.06,3.72l-33.07,5.57l-2.6-13l-29.35-2.6
			l-39.76,3.72l23.41-21.92l-30.1-9.66l-57.22,25.64l-13.38,3.72l-7.06,5.2l-13.75-2.97l-2.97,18.95l-5.57,8.55v-22.29l-8.17-4.09
			l-9.29,19.32l-62.42,12.45l-7.25-9.29l-14.4,23.5l-14.3,1.3l-8.73-15.6l20.16,4.46l7.34-9.01l-32.29-11.86l-3.78,3.07l-3.59,5.94
			l3.72,2.23l-1.98,4.83l7.31,24.15l-11.52,11.39l6.66,2.51l-6.1,3l-2.04,3.41l0.99,3.34l-1.16,2.41l2.32,5.81l8.17,2l3.44,6.87
			l2.09,1.61l-0.12,1.86l-2.48,0.99l0.37,3.53l6.27-1.21l1.9,5.02l2.42,0.93l1.21,3.07l14.3,4.13l-1.21,7.38l-3.62,0.79l-0.98,2.28
			l3.05,0.53l-4.27,1.8l-0.12,4.46l-2.97,0.43l-0.77,1.1l10.47,7.06l4.46,2.51l1.16,3.11l-0.59,1.64l4.09,0.31l1.86,1.24l0.56,3.78
			l2.35,0.5l1.36,1.24l-2.66,1.36l2.35,7.8l1.64,4.15l2.69,0.93l-2.04,6.13l1.76,3.93l4.18,2.11l1.08,3.93l2.32,4.15l5.02-0.74
			l3.78,6.32l11.02,6.94l6.94-3.16l1.18,4.89l13.56,2.04l14.74-0.4l4.83,5.76l5.45,2.94l-2.11,1.61l4.95,5.82l5.7-5.33l13,44.96
			l4.95,1.49l5.7-10.16l1.98-14.37l26.36-21.35l8.03-2.23l2.18,6.13l5.46,7.23l1.11,8.55l3.59,0.5l3.78-3.59l3.28,4.46l2.04,17.09
			l-0.19,6.5l5.51,5.64l3.55,11.73l6.64,4.46l2.65,0.09l-2.18-4.74l-0.79-6.87l-3.61-3.68l-5.14-3.16l-2.11-5.76l-1.24-1.3
			l2.35-12.38l2.11-0.37l0.5,2.48l5.39,2.23l2.04,3.84l3.84,1.24c0,0,1.24,5.57,1.11,5.76l13.25-9.78v-8.98l-4.15-5.94l-6.81-8.61
			l2.79-5.45l4.68-3.16l7.99,1.3l9.38-4.83l8.36-1.11l17.4-24.21l-7.55-17.34l8.42-7.43l-15.11-5.2l12.14-8.17l2.23,4.21l7.79-2.09
			l2.88,2.32l-1.44,4.78l5.62,1.35l0.28,5.85l-0.14,6.08l8.55-2.74l-0.23-6.87l-3.02-5.53l-3.02-2.55l3.44-3.16l3.95-2.83l0.19-3.2
			l2.85-2.58l3.18-3.27l9.75,0.33l17.46-29.35l-0.37-17.46l-14.86-5.94l23.41-17.09l31.58,0.74l13.75-13.38l22.66-3.34l-12.26,14.12
			l-15.98,17.46l4.09,19.32l17.09-18.58l-1.49-12.26l12.26-8.55l40.13-11.89l-4.09-8.92l10.4-10.4l17.09,8.55l10.77-11.52
			L-326.15,234.37z M-721.59,383.6l-8.36-6.81l0.53-2.38l0.46,0.12l1.27-4.43l2.26-0.68l-2.23-1.11l-3.07-4.4l0,0l-5.6-11.58
			l6.69-6.5l8.17-2.6l4.83,2.42l-7.8,8.55l5.94,8.92l3.72,10.9l0.25,6.63L-721.59,383.6z"/>
		<polygon class="st0" points="-461.39,393.14 -463.74,392.03 -468.45,393.76 -467.46,397.23 -463.62,394.88 		"/>
		<polygon class="st0" points="-443.93,361.62 -432.96,361.99 -426.28,356.05 -438.72,349.73 		"/>
		<polygon class="st0" points="-447.08,378.53 -458.6,386.89 -466.78,387.44 -471.79,391.72 -462.5,391.35 -457.67,393.57 
			-441.32,386.52 -439.47,366.64 -444.11,368.31 		"/>
		<polygon class="st0" points="-469.56,393.76 -473.15,392.89 -476.13,395.74 -475.51,401.56 -471.92,401.44 		"/>
		<path class="st0" d="M-501.08,424.72l-1.3-1.67l-2.66,2.79l-1.36,5.02l1.92,3.34C-504.49,434.2-501.14,424.91-501.08,424.72z"/>
		<polygon class="st0" points="-632.25,474.85 -633.13,481.26 -631.74,485.86 -629.14,485.81 -626.54,483.02 -630.91,474.15 		"/>
		<polygon class="st0" points="-536.13,440.02 -540.28,440.76 -542.14,443.11 -542.38,445.59 -539.16,446.58 -535.57,442.37 		"/>
		<polygon class="st0" points="-490.55,532.07 -491.74,532.97 -493.11,533.72 -493.94,533.97 -494.57,534.48 -495.71,535.5 
			-495.43,537.59 -493.04,536.6 -491.18,534.74 -484.42,531.46 -485.26,531.09 		"/>
		<polygon class="st0" points="-513.22,530.58 -513.53,531.2 -513.34,531.79 -516.66,531.48 -516.84,533.24 -515.42,533.4 
			-512.29,532.38 -510.46,532.28 -510.68,531.05 		"/>
		<polygon class="st0" points="-523.78,530.49 -523.56,531.23 -522.17,532.47 -520.53,531.26 -520.74,530.55 		"/>
		<polygon class="st0" points="-519.07,530.8 -519.53,532.5 -517.99,532.97 -517.52,531.26 -518.2,530.67 		"/>
		<path class="st0" d="M-537.37,513.77l18.3,2.23c0.23-0.09,5.39-14.49,5.39-14.49l1.81-0.84l-2.28-9.2l4.27-2.97l-6.97-5.67
			l-5.39,5.29l-3.53,2.51l-3.84,4.52l-4.02,0.96l-1.58,3.56l-4.52-0.9l-2.24,4.49L-537.37,513.77z"/>
		<polygon class="st0" points="-529.63,527.89 -532.17,526.4 -538.48,526.53 -546.6,523.99 -551.18,523.37 -552.48,526.09 
			-543.87,528.94 -524.36,532.04 -524.8,529.44 		"/>
		<polygon class="st0" points="-509.74,534.41 -509.9,535.37 -507.37,535.78 -505.58,537.15 -504.6,536.02 -506.72,534.34 		"/>
		<polygon class="st0" points="-528.92,527.52 -526.87,527.27 -525.73,526.59 -527.12,526.06 -529.6,526.71 		"/>
		<polygon class="st0" points="-551.12,515.35 -555.2,508.75 -565.88,498.81 -576.85,488.97 -584.37,487.2 -583.16,490.73 
			-574.15,499.47 -567.93,509.96 -556.78,522.78 -552.04,522.97 		"/>
		<polygon class="st0" points="-496.13,501.23 -503.84,500.86 -508.02,503.64 -509.87,514.05 -508.48,517.02 -508.76,522.22 
			-506.07,522.13 -505.79,513.77 -504.58,513.12 -501.42,519.06 -498.26,517.86 -502.17,511.45 -498.36,507.82 -503.93,508.57 
			-506.62,505.32 -504.12,503.18 -496.13,503.37 -491.39,499.74 		"/>
		<polygon class="st0" points="-472.49,529.75 -471.23,529.47 -470.35,527.89 -470.63,527.05 		"/>
		<polygon class="st0" points="-477.49,513.77 -481.64,513.89 -480.77,515.38 -476.87,515.19 -473.28,516.74 -474.02,514.51 		"/>
		<polygon class="st0" points="-480.06,503.83 -480.89,502.67 -479.73,500.25 -482.33,501.6 -482.19,499.05 -482.24,497.98 
			-483.22,498.72 -483.54,501.83 -481.82,507.45 -482.29,503.83 		"/>
		<polygon class="st0" points="-461.26,513.77 -463.12,507.45 -465.23,506.46 -469.93,506.71 -472.29,509.81 -465.1,511.91 
			-468.69,514.14 -462.5,517.36 -451.11,522.44 -449.25,529.62 -441.45,533.59 -441.45,513.03 -451.85,510.05 		"/>
		<polygon class="st0" points="-498.91,522.41 -498.12,522.45 -497.43,520.36 -497.2,518.6 -497.8,519.02 		"/>
		<polygon class="st0" points="-499.52,519.81 -499.94,521.39 -499.19,521.48 -498.45,519.44 		"/>
		<polygon class="st0" points="-499.12,531.49 -501.72,531.6 -503.4,531.65 -505.42,530.7 -507.62,531.46 -507.65,532.42 
			-502.72,532.67 -498.57,532 -497.73,530.56 -498.38,530.84 		"/>
		<polygon class="st0" points="-485.04,516.12 -485.29,514.57 -488.2,514.33 -487.15,516.06 		"/>
		<polygon class="st0" points="-548.52,513.21 -550.74,509.87 -553.04,510.49 -551.67,511.85 -550.13,513.96 		"/>
		<polygon class="st0" points="-506.81,457.76 -504.95,458.59 -504.67,461.2 -501.7,460.73 -496.78,461.66 -494.46,463.61 
			-496.13,460.92 -501.24,459.8 -502.63,456.64 -499.75,451.26 -499.75,446.52 -504.21,445.5 -506.07,453.76 -507.09,454.51 		"/>
		<polygon class="st0" points="-489.35,469.37 -490.37,465.56 -493.06,465.47 -491.48,468.63 		"/>
		<polygon class="st0" points="-494.92,474.05 -493.96,474.66 -493,474.17 -492.91,473.4 -493.84,472.96 		"/>
		<polygon class="st0" points="-496.56,474.35 -496.47,475.13 -495.17,472.87 -494.39,469.43 -494.92,470.21 		"/>
		<polygon class="st0" points="-492.27,471.23 -492.18,472.95 -490.79,472.25 -491.62,470.25 -491.95,468.91 -493.25,469.04 		"/>
		<polygon class="st0" points="-503.37,466.3 -502.63,465 -502.72,462.87 -505.69,462.31 		"/>
		<polygon class="st0" points="-494.55,466.77 -496.82,465 -497.1,466.82 -496.13,466.4 		"/>
		<polygon class="st0" points="-493.81,479.12 -498.17,479.12 -501.42,482.84 -497.61,481.35 -494.36,482.19 -493.25,485.62 
			-490.09,486.37 -490.18,483.77 -488.98,482.19 -486.84,483.4 -488.6,474.57 		"/>
		<polygon class="st0" points="-499.56,474.53 -497.1,476.1 -497.15,474.48 -496.27,471.27 -496.64,470.07 -498.12,473.04 		"/>
		<polygon class="st0" points="-508.76,469.56 -515.26,478.38 -508.02,471.51 		"/>
		<polygon class="st0" points="-501.05,471.78 -499.1,470.95 -497.33,468.63 -500.86,467.33 		"/>
	</g>
</g>
<g id="WAKU">
	<rect x="-994.89" y="82.37" class="st1" width="1268.25" height="644.93"/>
</g>
</svg>
