<?xml version="1.0" encoding="utf-8"?>
<!-- Generator: Adobe Illustrator 23.1.1, SVG Export Plug-In . SVG Version: 6.00 Build 0)  -->
<svg version="1.1" xmlns="http://www.w3.org/2000/svg" xmlns:xlink="http://www.w3.org/1999/xlink" x="0px" y="0px"
	 viewBox="0 0 595.28 841.89" style="enable-background:new 0 0 595.28 841.89;" xml:space="preserve">
<style type="text/css">
	.st0{fill:#D51C19;}
	.st1{fill:none;}
</style>
<g id="オセアニア">
	<path id="australia_7_" class="st0" d="M-435.94,538.85l14.49,28.79l19.88,23.96l-12.63,39.2l-28.98,1.3l-9.1-18.21l-5.57,3.9
		l-13.75-9.47l-49.23,12.63l-6.5-42.91l25.64-13.93l15.79-15.23l7.62,1.11l9.29-8.55l12.26,2.04l-2.04,8.55l16.16,9.1
		L-435.94,538.85z M-425.16,651.98l5.02-2.42l1.3-6.69l-10.96-1.3L-425.16,651.98z"/>
	<path id="new_zealand_6_" class="st0" d="M-362.06,661.4l14.61-12.01l5.82-8.55l5.2,3.84l-6.94,9.16l-7.43,11.64L-362.06,661.4z
		 M-331.97,643.56l7.43-13l-5.94-0.37l-9.54-10.4l5.08,8.92l-2.97,7.31l3.1,2.6v4.33L-331.97,643.56z"/>
	<path id="papua_new_guinea_6_" class="st0" d="M-431.66,529.13l-3.22,4.58l-6.56-0.12v-20.56l14.37,6.07l6.19,5.2l-0.99,1.98
		l10.4,11.27l-7.93-0.87l-7.18-7.93L-431.66,529.13z M-418.41,522.69l1.92,1.24l5.51,0.25l4.27-2.23l0.96-3.72l-2.04-0.06
		c0,0-2.91,4.06-3.34,4.12c-0.43,0.06-6.22-0.22-6.22-0.22L-418.41,522.69z"/>
</g>
<g id="WAKU">
	<rect x="-994.89" y="82.37" class="st1" width="1268.25" height="644.93"/>
</g>
</svg>
