<?xml version="1.0" encoding="utf-8"?>
<!-- Generator: Adobe Illustrator 23.1.1, SVG Export Plug-In . SVG Version: 6.00 Build 0)  -->
<svg version="1.1" xmlns="http://www.w3.org/2000/svg" xmlns:xlink="http://www.w3.org/1999/xlink" x="0px" y="0px"
	 viewBox="0 0 595.28 841.89" style="enable-background:new 0 0 595.28 841.89;" xml:space="preserve">
<style type="text/css">
	.st0{fill:#D51C19;stroke:#D51C19;stroke-width:2;stroke-linejoin:round;stroke-miterlimit:10;}
	.st1{fill:#D51C19;}
	.st2{fill:none;}
</style>
<g id="中東">
	<g>
		<polygon class="st0" points="-731.66,407.76 -731.63,407.35 -732.18,406.89 -732.18,407.63 		"/>
		<polygon class="st1" points="-703.7,427.76 -706.42,423.98 -706.51,421.63 -706.17,420.08 -706.36,419.27 -707.35,420.2 
			-713.14,426.74 -720.11,427.45 -721.44,426.3 -722.24,425.43 -721.35,423.52 -721.75,420.39 -723.23,420.02 -724.01,422.9 
			-723.79,424.66 -731.32,411.5 -732.74,408.78 -733.24,408.34 -732.37,407.72 -732.68,406.58 -731.25,406.58 -733.58,402.43 
			-734.66,398.5 -738.84,396.39 -740.6,392.46 -738.56,386.33 -741.25,385.4 -742.9,381.25 -744.32,381.87 -745.43,380.88 
			-750.39,381.75 -768.04,383.11 -768.97,385.65 -770.51,385.59 -770.27,390.42 -772.99,395.99 -774.48,400.2 -775.84,402.12 
			-773.64,408.25 -773.45,408.81 -774.23,412.71 -765.31,425.53 -760.48,432.4 -757.7,440.39 -748.41,452.28 -746.73,464.26 
			-732.99,460.59 -719.89,455.02 -716.83,451.97 -711.31,450.61 -709.52,448.25 -702.46,444.41 -701.28,439.46 -695.52,432.59 		"/>
	</g>
</g>
<g id="WAKU">
	<rect x="-994.89" y="82.37" class="st2" width="1268.25" height="644.93"/>
</g>
</svg>
