<?xml version="1.0" encoding="utf-8"?>
<!-- Generator: Adobe Illustrator 23.1.1, SVG Export Plug-In . SVG Version: 6.00 Build 0)  -->
<svg version="1.1" xmlns="http://www.w3.org/2000/svg" xmlns:xlink="http://www.w3.org/1999/xlink" x="0px" y="0px"
	 viewBox="0 0 595.28 841.89" style="enable-background:new 0 0 595.28 841.89;" xml:space="preserve">
<style type="text/css">
	.st0{fill:#D51C19;}
	.st1{fill:none;}
</style>
<g id="北アメリカ">
	<g>
		<polygon class="st0" points="-51.34,182.72 -52.08,175.66 -66.94,170.83 -64.71,178.26 		"/>
		<polygon class="st0" points="-50.97,200.56 -46.88,189.04 -65.46,190.53 		"/>
		<polygon class="st0" points="-82.18,177.52 -91.09,176.78 -96.67,184.21 -87.38,183.47 		"/>
		<polygon class="st0" points="-92.95,203.16 -72.14,199.81 -73.63,191.27 -93.32,192.75 -101.13,187.55 -103.73,199.07 		"/>
		<polygon class="st0" points="-53.94,211.7 -58.4,219.51 -42.79,222.85 -44.28,209.85 		"/>
		<polygon class="st0" points="12.57,198.33 3.28,193.87 -14.93,196.84 -25.33,189.41 -39.08,188.3 -31.65,192.38 -25.7,202.41 
			7.74,204.64 		"/>
		<polygon class="st0" points="-34.62,181.24 -45.39,174.55 -43.54,180.49 		"/>
		<path class="st0" d="M52.69,274.49l13.38-27.87l-42.73-33.07l-37.9-4.09l-2.6,19.32l29.72,3.72L33,245.89c0,0-13.38,13-14.49,13
			L52.69,274.49z"/>
		<polygon class="st0" points="56.41,283.04 46.75,289.36 25.94,272.64 11.08,320.19 -6.38,304.22 -32.76,292.33 2.16,262.23 
			6.62,239.2 -71.4,241.8 -131.59,234 -179.89,234 -231.17,225.08 -258.66,236.6 -251.23,249.97 -260.52,253.69 -245.28,260 
			-259.4,280.44 -235.62,292.7 -258.29,312.02 -215.56,283.78 -180.26,287.87 -167.01,294.43 -155,304.22 -145.71,307.07 
			-129.61,334.56 -126.76,369.61 -106.7,397.85 -85.27,429.18 -82.8,429.43 -92.7,411.59 -98.15,401.93 -94.19,401.93 
			-68.92,433.14 -68.68,440.82 -43.16,454.69 -35.24,453.46 -27.81,458.66 -23.6,452.96 -23.84,448.5 -17.9,447.76 -15.17,446.52 
			-10.96,435.13 -16.41,435.37 -23.6,443.05 -36.48,446.27 -43.41,437.6 -45.39,419.4 -35.73,407.88 -2.29,406.02 5.14,421.63 
			8.85,422.37 6.25,403.79 21.11,388.19 32.63,368.12 38.58,364.41 39.69,358.84 50.84,351.78 59.75,353.26 72.02,344.34 
			55.67,333.57 77.59,328.37 74.99,338.4 92.45,339.89 86.13,324.28 		"/>
		<polygon class="st0" points="-34.99,197.58 -41.68,200.19 -32.39,202.41 		"/>
		<polygon class="st0" points="-17.9,188.3 11.08,190.9 65.7,143.71 21.86,140.74 -20.87,150.77 -42.79,163.77 -28.3,178.26 		"/>
		<path class="st0" d="M-35.36,209.47l-2.97,12.63l-1.49,11.15l11.15-0.37l-3.72-8.17c0,0,8.17-13.75,8.55-14.86L-35.36,209.47z"/>
		<polygon class="st0" points="-92.21,235.85 -56.91,233.62 -68.8,213.56 -94.44,213.56 -107.07,207.62 -125.65,207.99 
			-134.56,219.13 -108.93,225.82 		"/>
		<polygon class="st0" points="-102.98,185.7 -122.3,189.04 -110.04,194.98 		"/>
		<polygon class="st0" points="173.82,137.64 74.74,149.04 38.58,178.76 44.03,190.65 74.74,195.11 88.12,209.47 95.05,245.14 
			103.97,276.85 123.78,285.27 146.08,251.58 189.18,227.8 196.11,183.71 220.88,151.51 		"/>
		<polygon class="st0" points="18.14,441.57 28.85,439.96 15.73,433.76 4.15,429.92 -2.48,432.22 -3.22,434.44 5.14,433.27 
			13.31,435.06 15.85,437.73 18.95,438.78 		"/>
		<polygon class="st0" points="39.63,441.32 36.47,441.81 31.27,441.63 33.31,443.11 33.81,445.22 28.85,445.47 28.11,446.52 
			36.1,447.26 37.34,448.5 38.82,446.52 46.19,446.4 47,445.22 45.57,444.17 		"/>
		<polygon class="st0" points="16.1,445.96 16.65,447.2 19.13,448.25 22.41,447.63 20.49,446.15 		"/>
	</g>
</g>
<g id="WAKU">
	<rect x="-994.89" y="82.37" class="st1" width="1268.25" height="644.93"/>
</g>
</svg>
