<?xml version="1.0" encoding="utf-8"?>
<!-- Generator: Adobe Illustrator 23.1.1, SVG Export Plug-In . SVG Version: 6.00 Build 0)  -->
<svg version="1.1" xmlns="http://www.w3.org/2000/svg" xmlns:xlink="http://www.w3.org/1999/xlink" x="0px" y="0px"
	 viewBox="0 0 595.28 841.89" style="enable-background:new 0 0 595.28 841.89;" xml:space="preserve">
<style type="text/css">
	.st0{fill:#D51C19;}
	.st1{fill:none;}
</style>
<g id="北欧">
	<g>
		<polygon class="st0" points="-825.83,296.83 -826.11,298.6 -825.87,299.85 -823.92,297.86 -823.41,295.77 -824.67,295.77 		"/>
		<polygon class="st0" points="-828.47,281.8 -827.86,273.38 -815.59,263.47 -815.59,257.16 -808.04,253.81 -803.58,256.78 
			-816.21,271.27 -815.84,282.05 -810.52,286.01 -795.65,282.67 -784.14,271.27 -791.44,247.12 -789.46,242.29 -793.18,240.06 
			-789.59,234.12 -785.8,231.05 -788.1,227.8 -811.38,229.29 -834.3,240.44 -853.99,266.57 -867.24,274.99 -866.25,291.71 
			-860.68,295.05 -850.27,287.87 -848.04,289.6 -847.05,290.59 -842.72,302.86 -840.24,305.95 -836.65,303.35 -832.93,302.36 
			-830.46,292.7 -823.64,286.01 		"/>
		<polygon class="st0" points="-811.75,291.24 -811.01,291.28 -811.07,290.78 -812.06,290.13 -813.95,290.72 -812.28,291.65 		"/>
		<path class="st0" d="M-796.15,294.93l-0.99-3.34l2.04-3.41l-8.17-0.62l-6.13,2.04l0.87,3.65l2.04,0.37l-0.39,2.28l0.33,2.42
			l-1.02,1.21l-2-0.05l-3.07-3.02c0,0-2.6,1.16-2.74,1.21c-0.14,0.05-1.63,2.83-1.63,2.83l0.09,2.97l0.42,3.07l4.83,1.49l-0.96,2.01
			l2.97,1.73l6.77-1.15l2.97-5.57l4.92-1.9l-2.32-5.81L-796.15,294.93z"/>
		<polygon class="st0" points="-813.06,294.4 -810.08,292.98 -810.95,292.42 -812.31,292.27 -814.45,292.92 -813.74,294.5 
			-813.86,295.24 		"/>
		<path class="st0" d="M-945.88,252.2l-3.72,3.34l-3.16-5.02l-5.39,4.27l5.2,0.56l-1.67,4.09c0.56,0.19,10.22,8.92,10.22,8.92
			l11.52-3.34l6.87-7.99l-7.62-7.25L-945.88,252.2z"/>
	</g>
</g>
<g id="WAKU">
	<rect x="-994.89" y="82.37" class="st1" width="1268.25" height="644.93"/>
</g>
</svg>
