<?xml version="1.0" encoding="utf-8"?>
<!-- Generator: Adobe Illustrator 23.1.1, SVG Export Plug-In . SVG Version: 6.00 Build 0)  -->
<svg version="1.1" xmlns="http://www.w3.org/2000/svg" xmlns:xlink="http://www.w3.org/1999/xlink" x="0px" y="0px"
	 viewBox="0 0 595.28 841.89" style="enable-background:new 0 0 595.28 841.89;" xml:space="preserve">
<style type="text/css">
	.st0{fill:#D51C19;}
	.st1{fill:none;}
</style>
<g id="南アメリカ">
	<g>
		<path class="st0" d="M94.81,614.43l13.25-17.83l1.86-10.4l20.06-8.55l9.29-29.72l12.26-17.46l-2.23-9.29l-43.66-17.65l-5.85-11.89
			l-0.01,0.02l-7.8-4.92l-9.75-0.65l-9.35-7.86l-3.84-3.59l-13.5-2.6l-13-3.84l-5.33,3.96l0.74-4.77l-0.19-1.61l-11.46,4.21
			l-2.35,5.2l-5.26,2.35l-2.6-2.14l-3.99-0.46l-4.27,2.14l-2.04-0.28l-3.56-2.29l-3.03-4.07l1.11-13.28L-5.92,454l-9.57,0.98
			l-1.86-0.34l1.95-2.91l0.22-5.2l-2.72,1.24l-5.94,0.74l0.25,4.46l-4.21,5.7l6.84,2.72l4.55,1.61l2.07,0.25l0.37-0.9l1.09,0.47
			l0.37,0.87l-0.88,0.45l6.04,5.81l0.42,3.78l1.67-0.43l6.38,5.39l2.82,0.19l2.88,2.14l2.6,0.37l0.09-2.42l2.23-1.86l2.88,0.19
			l2.69,4.74l2.01,10.71l-5.26,7.49l-3.78,2.66l-2.29,9.1l1.73,3.78l-3.59,3.72l3.34,5.33l12.88,21.8l-0.25,2.97l18.64,13.62
			l-0.68,26.01l-3.34,17.09l-0.19,7.62l-5.39,14.12l-1.3,16.53l-0.74,8.36l-3.72,11.33l0.37,18.21l5.02,13.56l9.1,6.13l9.29,2.79
			l1.3-2.41l-4.09-1.3l12.45,0.37l-12.63-9.29l0.19-1.8l6.69-21.8l-2.23-7.43l6.69-12.63l1.11-6.32l6.69-0.74l1.11-6.69L80,631.55
			l2.6-5.2l-4.27-10.5l10.5,3.99l5.98-5.39L94.81,614.43z"/>
		<polygon class="st0" points="69.97,472.99 70.13,471.2 70.41,470.62 68.35,471.11 68.65,471.95 67.46,473.06 		"/>
	</g>
</g>
<g id="WAKU">
	<rect x="-994.89" y="82.37" class="st1" width="1268.25" height="644.93"/>
</g>
</svg>
