<?xml version="1.0" encoding="utf-8"?>
<!-- Generator: Adobe Illustrator 23.1.1, SVG Export Plug-In . SVG Version: 6.00 Build 0)  -->
<svg version="1.1" xmlns="http://www.w3.org/2000/svg" xmlns:xlink="http://www.w3.org/1999/xlink" x="0px" y="0px"
	 viewBox="0 0 595.28 841.89" style="enable-background:new 0 0 595.28 841.89;" xml:space="preserve">
<style type="text/css">
	.st0{fill:#D51C19;}
	.st1{fill:none;}
</style>
<g id="東欧">
	<g>
		<polygon class="st0" points="-779.65,387.97 -781.5,389.05 -781.29,390.26 -779.65,390.66 -776.4,389.3 -776.49,388.06 
			-774.82,386.92 		"/>
		<polygon class="st0" points="-742.59,372.09 -743.95,370.85 -746.3,370.35 -746.86,366.58 -748.72,365.34 -752.8,365.03 
			-765.31,366.64 -777.57,362.92 -785.68,366.79 -791.82,366.48 -792.06,367.1 -789.65,368.4 -798.8,369.47 -800.7,371.14 
			-800.89,373.05 -798.94,373.05 -798.66,375.83 -799.87,377.6 -797.45,378.81 -798.1,379.92 -795.41,382.61 -788.9,384.75 
			-786.4,382.52 -780.45,385.21 -770.14,382.52 -770.51,385.59 -768.97,385.65 -768.04,383.11 -750.39,381.75 -745.43,380.88 
			-744.32,381.87 -742.9,381.25 -745.25,373.45 		"/>
		<polygon class="st0" points="-843.21,378.03 -843.77,379.46 -835.84,383.05 -835.72,380.45 -834.23,377.66 -838.69,378.28 		"/>
		<polygon class="st0" points="-856.96,367.69 -856.77,372.58 -855.97,374.87 -852.81,373.76 -852.56,368.99 -853.55,366.58 		"/>
		<polygon class="st0" points="-810.08,378.48 -807.44,379.36 -808.13,377.51 -812.03,375.46 -810.59,373.6 -812.45,369.7 
			-811.24,369.01 -809.43,370.86 -808.55,369.84 -808.13,368.36 -803.86,367.38 -801.49,368.08 -799.52,368.65 -800.76,370.6 
			-796.89,367.32 -792.37,367.01 -792.09,366.24 -795.04,364.56 -795.41,363.29 -796.57,361.44 -793.5,356.42 -792.39,352.29 
			-790.72,351.92 -790.02,350.34 -790.07,348.34 -787.84,347.22 -786.4,344.72 -783.38,344.25 -783.15,346.2 -777.48,346.99 
			-780.87,349.78 -778.22,350.85 -777.85,353.54 -769.4,351.03 -768.98,349.78 -772.6,349.5 -773.35,345.74 -763.22,342.39 
			-762.25,340.12 -758.62,339.33 -757.42,331.94 -771.72,327.81 -772.93,324.75 -775.34,323.82 -777.25,318.8 -783.52,320.01 
			-783.89,316.48 -781.41,315.49 -781.29,313.63 -783.38,312.02 -786.82,305.15 -794.99,303.15 -799.91,305.05 -802.88,310.63 
			-809.65,311.77 -812.62,310.04 -820.8,309.3 -824.76,310.29 -825.75,308.31 -838.13,312.27 -836.65,325.15 -844.82,329.11 
			-838.43,336 -842.35,338.03 -843.21,340.38 -853,340.75 -852.93,342.8 -850.52,343.35 -850.49,344.81 -851.7,345.68 
			-853.89,345.09 -855.07,346.82 -856.9,345.55 -858.54,347.16 -860.83,347.47 -861.26,352.24 -859.22,356.05 -855.6,353.91 
			-851.14,355.49 -844.36,364.5 -835.53,369.7 -833.3,372.77 -832.47,375.37 -833.86,377.97 -831.91,378.25 -829.22,373.98 
			-830.8,371.84 -829.96,369.89 -825.5,371.19 -825.41,369.89 -833.3,364.87 -832.47,363.76 -838.04,362.18 -840.74,357.16 
			-843.99,354.66 -844.45,349.55 -840.39,348.12 -839.68,348.99 -840.55,350.17 -839.62,351.84 -838.01,350.29 -836.46,351.71 
			-835.35,354.69 -832.38,357.29 -827.98,359.45 -827.48,359.83 -825.22,361.1 -825.03,361.54 -824.53,361.59 -822.45,363.71 
			-821.88,364.56 -822.1,369.61 -820.3,372.15 -816.82,376.9 -812.17,377.18 -810.73,377.97 -811.38,378.53 -815.28,377.46 
			-816.77,378.85 -814.68,382.47 -810.78,383.54 -811.52,380.34 -810.04,380.52 -810.73,379.08 		"/>
		<polygon class="st0" points="-802.79,381.89 -803.23,381.48 -803.49,381.92 -803.16,382.29 		"/>
		<polygon class="st0" points="-799.71,374.44 -800.55,373.39 -801.97,373.85 -801.07,374.81 		"/>
		<polygon class="st0" points="-801.1,376.55 -801.88,376.39 -801.54,377.85 		"/>
		<polygon class="st0" points="-811.04,384.91 -810.83,385.12 -810.73,384.8 -811.04,384.38 		"/>
		<polygon class="st0" points="-820.72,371.82 -821.4,371.76 -821.45,371.99 -820.89,372.74 -820.2,373.16 -820.81,372.22 		"/>
		<polygon class="st0" points="-818.5,376.87 -818.9,377.24 -819.29,377.6 -818.8,377.87 -817.96,378.08 		"/>
		<polygon class="st0" points="-818.29,379.02 -817.92,379.6 -817.35,379.35 -818.1,378.79 		"/>
		<polygon class="st0" points="-818.18,375.38 -818.64,375.73 -818.53,376.31 -818.13,375.91 		"/>
		<polygon class="st0" points="-805.35,368.36 -805.79,368.01 -806.18,368.26 -806.09,368.73 -805.62,368.73 		"/>
		<polygon class="st0" points="-801.51,380.04 -800.91,379.94 -800.54,379.69 -801.07,379.69 		"/>
		<polygon class="st0" points="-799.63,379.29 -798.96,379.5 -798.31,379.46 -798.7,379.11 		"/>
		<polygon class="st0" points="-795.78,384.72 -796.06,385.8 -795.07,385.43 -794.6,384.41 -794.82,384.1 		"/>
		<polygon class="st0" points="-808.92,387.12 -809.11,388.19 -805.3,389.44 -801.17,389.26 -800.7,388.33 -803.44,388.14 		"/>
		<polygon class="st0" points="-804.35,371.61 -803.93,371.54 -803.58,371.65 -803.37,370.91 -804.35,371.05 		"/>
		<polygon class="st0" points="-798.11,387.01 -797.96,387.71 -797.71,387.54 -797.75,386.36 		"/>
		<polygon class="st0" points="-806.11,375.44 -805.76,375.32 -806.2,374.79 		"/>
		<polygon class="st0" points="-810.02,374.78 -810.95,375.21 -808.23,377.01 -806.46,378.34 -807.33,376.33 -809.25,375.59 		"/>
		<polygon class="st0" points="-802.91,368.96 -803.14,369.17 -802.84,369.42 -802.54,369.24 		"/>
		<polygon class="st0" points="-804.79,379.49 -804.69,379.28 -804.84,378.89 -805.39,378.55 -805.26,379.18 		"/>
		<polygon class="st0" points="-873.18,361.62 -888.48,357.78 -906.62,356.85 -910.46,358.22 -911.08,363.05 -911.82,374.19 
			-911.33,380.51 -906.25,380.88 -903.77,382.24 -900.93,385.34 -890.15,382.61 -884.33,376.17 -883.34,371.1 -874.79,364.9 		"/>
		<polygon class="st0" points="-875.29,372.35 -874.64,372.95 -873.06,373.14 -872.22,372.07 -873.43,371.24 		"/>
	</g>
</g>
<g id="レイヤー_3">
	<polygon class="st0" points="-817.28,307.56 -819.98,308.03 -820.8,309.3 -812.62,310.04 -811.66,308.03 -816.49,306.54 	"/>
	<polyline class="st1" points="273.37,82.37 273.37,727.3 -994.89,727.3 -994.89,82.37 	"/>
</g>
<g id="WAKU">
	<rect x="-994.89" y="82.37" class="st1" width="1268.25" height="644.93"/>
</g>
</svg>
