<?xml version="1.0" encoding="utf-8"?>
<!-- Generator: Adobe Illustrator 23.1.1, SVG Export Plug-In . SVG Version: 6.00 Build 0)  -->
<svg version="1.1" xmlns="http://www.w3.org/2000/svg" xmlns:xlink="http://www.w3.org/1999/xlink" x="0px" y="0px"
	 viewBox="0 0 595.28 841.89" style="enable-background:new 0 0 595.28 841.89;" xml:space="preserve">
<style type="text/css">
	.st0{fill:#D51C19;}
	.st1{fill:none;}
</style>
<g id="西欧">
	<g>
		<polygon class="st0" points="-843.52,303.47 -846.54,303.71 -848.26,304.96 -845.75,308.31 		"/>
		<polygon class="st0" points="-849.37,308.52 -848.82,307.41 -849.78,308.34 		"/>
		<polygon class="st0" points="-852.07,306.22 -850.86,307.33 -849.47,307.33 -849.23,305.94 -851.28,305.38 		"/>
		<polygon class="st0" points="-846.49,309.02 -846.28,308.49 -848.2,307.96 -848.32,308.77 -847.39,309.11 		"/>
		<polygon class="st0" points="-856.22,361.75 -854.54,365.52 -853.12,362.67 -853.62,359.33 		"/>
		<polygon class="st0" points="-904.52,306.94 -907.74,306.45 -910.96,310.16 -913.56,311.65 -912.57,314.87 -913.93,318.83 
			-914.8,322.42 -902.91,319.33 -902.29,311.65 -900.68,309.42 -902.16,306.82 		"/>
		<polygon class="st0" points="-878.88,324.28 -878.14,317.22 -882.6,314.37 -887.18,308.18 -891.88,302.98 -889.53,296.79 
			-894.86,296.54 -892.63,292.08 -900.31,293.69 -900.18,303.6 -898.08,308.92 -894.73,308.68 -892.26,312.14 -898.2,321.43 
			-893.74,323.04 -899.81,328.49 		"/>
		<polygon class="st0" points="-840.02,310.38 -840.24,309.76 -840.33,309.02 -841.32,309.02 -841.54,310.5 -840.74,310.5 		"/>
		<polygon class="st0" points="-836.65,325.15 -838.13,312.27 -843.46,310.16 -849.53,310.91 -852.87,308.92 -852.44,305.52 
			-849.51,302.45 -850.26,301.06 -850.16,296.55 -855.97,299.39 -857.36,303.66 -855.72,308.43 -855.23,311.65 -860.92,314.75 
			-864.42,314.48 -867.86,316.48 -871.76,322.33 -869.21,323.12 -872.46,323.35 -875.1,324.7 -877.83,325.64 -878.94,329.73 
			-883.83,332.89 -888.91,331.16 -887.86,335.24 -898.2,336.11 -896.71,339.39 -891.14,340.82 -886.87,345.89 -886.99,352.58 
			-888.48,357.78 -873.18,361.62 -871.02,357.23 -864.02,358.84 -859.22,356.05 -861.26,352.24 -860.83,347.47 -858.54,347.16 
			-856.9,345.55 -855.07,346.82 -853.89,345.09 -851.7,345.68 -850.49,344.81 -850.52,343.35 -852.93,342.8 -853,340.75 
			-843.21,340.38 -842.35,338.03 -838.38,336.05 -844.82,329.11 		"/>
	</g>
</g>
<g id="WAKU">
	<rect x="-994.89" y="82.37" class="st1" width="1268.25" height="644.93"/>
</g>
</svg>
