<svg width="57" height="48" viewBox="0 0 57 48" fill="none" xmlns="http://www.w3.org/2000/svg">
<path fill-rule="evenodd" clip-rule="evenodd" d="M43.8127 18.0725C44.229 16.7525 44.4535 15.3475 44.4535 13.89C44.4535 6.21877 38.2347 0 30.5635 0C22.8922 0 16.6735 6.21877 16.6735 13.89C16.6735 15.3508 16.899 16.7589 17.317 18.0814C14.6274 17.6087 11.7753 17.8757 9.06925 19.0088C1.54498 22.1593 -2.00061 30.813 1.14995 38.3372C4.3005 45.8615 12.9542 49.4071 20.4784 46.2566C23.9549 44.8009 26.582 42.1705 28.0917 39.0195C29.9582 42.9166 33.5101 45.9637 38.0443 47.0272C45.9861 48.8899 53.9341 43.9619 55.7968 36.0202C57.6596 28.0785 52.7316 20.1304 44.7898 18.2677C44.464 18.1913 44.1381 18.1263 43.8127 18.0725Z" fill="#EB5757"/>
<path d="M31.48 16.52H28.22L23.46 32.04H26.02L27.36 27.48H32.12L33.44 32.04H36.26L31.48 16.52ZM31.64 25.48H27.84L28.68 22.32C29.02 21.12 29.3 20 29.64 18.52H29.82C30.16 19.98 30.4 21.12 30.74 22.34L31.64 25.48Z" fill="white"/>
</svg>
