<svg width="645" height="160" viewBox="0 0 645 160" fill="none" xmlns="http://www.w3.org/2000/svg">
<rect y="61" width="51" height="67" fill="#093F68"/>
<path d="M21.2924 75.6381C21.2924 74.019 21.3306 73.1619 21.3306 73.0476C21.3306 72.8381 21.3115 72.819 21.1207 72.819C20.9871 72.819 20.3765 72.8571 18.6019 72.8571H13.2971C11.5224 72.8571 10.8927 72.819 10.7592 72.819C10.5683 72.819 10.5493 72.8381 10.5493 73.0476C10.5493 73.1619 10.5874 74.019 10.5874 75.6381V78.4381C10.5874 84.2286 9.95771 85.8476 7.43889 88.1905C7.89685 88.381 8.41207 88.6857 8.81279 89.0857C9.02269 89.2952 9.13718 89.3905 9.25168 89.3905C9.36617 89.3905 9.46158 89.2762 9.6524 89.0667C11.2171 87.2952 12.0376 85.8095 12.4002 83.1619H19.2125V86.4952C19.2125 86.9143 19.0026 87.1619 18.5446 87.1619C17.8004 87.1619 17.1898 87.1429 16.3693 87.0667C16.5792 87.4476 16.7891 88.1143 16.8654 88.6667C16.9417 89.2762 16.9799 89.2571 17.5714 89.2571C19.5941 89.2571 20.2429 89.1619 20.739 88.7048C21.2161 88.2476 21.3497 87.7524 21.3497 86.9333C21.3497 85.8857 21.2924 84.4381 21.2924 83.1238V75.6381ZM12.591 81.3143C12.6292 80.5905 12.6483 79.7905 12.6674 78.8952H19.2125V81.3143H12.591ZM19.2125 74.7429V77.0476H12.6674V74.7429H19.2125Z" fill="white"/>
<path d="M34.4781 74.7429C34.4781 74.419 34.5162 74.1714 34.5162 74.0571C34.5162 73.8667 34.4972 73.8476 34.2873 73.8476C34.1728 73.8476 33.6385 73.8857 32.0547 73.8857H31.4059V73.8095C31.4059 73.219 31.4059 72.9524 31.5013 72.7238C31.5585 72.6095 31.6349 72.4952 31.6349 72.3429C31.6349 72.2667 31.5204 72.1524 31.3296 72.1333C30.6617 72.0762 30.1083 72.019 29.4023 72C29.5168 72.6667 29.5358 73.1619 29.5358 73.8095V73.8857H28.9634C27.3987 73.8857 26.8453 73.8476 26.7308 73.8476C26.54 73.8476 26.5209 73.8667 26.5209 74.0571C26.5209 74.1905 26.5591 74.419 26.5591 74.8571V75.2762C26.5591 76.5714 26.5209 76.781 26.5209 76.9143C26.5209 77.1048 26.54 77.1238 26.7308 77.1238H28.0284C28.2001 77.1238 28.2192 77.1048 28.2192 76.9143V75.4095H32.7798V76.8L32.6271 76.8571C32.5317 76.8952 32.4554 76.9143 32.2646 76.9143H30.3755L30.4709 76.7429C30.5281 76.6286 30.6044 76.4952 30.738 76.4C30.8334 76.3238 30.8716 76.2857 30.8716 76.1905C30.8716 76.0952 30.7953 76.0571 30.6044 76C30.2228 75.8857 29.7839 75.7714 29.1542 75.6762C29.0779 76 28.9443 76.2857 28.7344 76.6476C28.2764 77.4667 27.3987 78.5905 26.082 79.4857C26.2919 79.6952 26.5591 80.019 26.788 80.4381C26.9025 80.6286 26.9598 80.7429 27.0552 80.7429C27.1506 80.7429 27.2651 80.6476 27.4941 80.4571C27.8185 80.1905 28.1429 79.9048 28.4291 79.6C28.7535 80.0571 29.0779 80.4762 29.4595 80.8571C28.5245 81.4857 27.3223 82.019 25.7767 82.419C25.9866 82.6667 26.2156 83.0857 26.3682 83.5429C26.4636 83.7905 26.54 83.8857 26.6735 83.8857C26.769 83.8857 26.9025 83.8476 27.0933 83.7714C27.2269 83.7333 27.3796 83.6762 27.5132 83.619C27.5132 83.8667 27.5322 84.2857 27.5322 84.9905V86.0762C27.5322 88.3048 27.4941 88.7048 27.4941 88.819C27.4941 89.0286 27.5132 89.0476 27.7231 89.0476H29.0588C29.2496 89.0476 29.2687 89.0286 29.2687 88.819V88.0381H31.7684V88.4381C31.7684 88.6286 31.7875 88.6476 31.9783 88.6476H33.3141C33.4477 88.6476 33.5049 88.6476 33.524 88.5905L33.8675 89.0667C34.0583 89.3905 34.1346 89.5048 34.2873 89.5048C34.3827 89.5048 34.5162 89.4476 34.7452 89.3524C35.9092 88.819 36.8061 88.1714 37.6266 87.4667C37.8174 87.3143 37.9701 87.2 38.1227 87.1238C38.2563 87.0667 38.3517 87.0095 38.3517 86.8952C38.3517 86.8 38.3136 86.7048 38.1418 86.5905C37.7602 86.3048 37.3404 86.019 36.8442 85.7714C36.6343 86.0381 36.4244 86.2667 36.1955 86.4381C35.3749 87.0857 34.6498 87.5238 33.524 87.9619C33.5049 87.6 33.5049 86.9714 33.5049 85.8476V84.6667C33.5049 84.0381 33.524 83.6381 33.5431 83.4476L33.8484 83.5619C34.4018 83.7143 34.4018 83.7143 34.6117 83.1429C34.7452 82.7429 34.9742 82.2857 35.2032 81.9619C33.9629 81.7143 32.8561 81.3143 31.902 80.7619C32.4363 80.1905 32.8752 79.5429 33.295 78.819C33.5049 78.4571 33.6003 78.3238 33.772 78.2095C33.8865 78.1143 33.9438 78.0571 33.9438 77.9429C33.9438 77.8095 33.8675 77.619 33.5431 77.2952L33.3522 77.1238H34.2873C34.4972 77.1238 34.5162 77.1048 34.5162 76.9143C34.5162 76.781 34.4781 76.5714 34.4781 75.2762V74.7429ZM31.7684 84.5905V86.6095H29.2687V84.5905H31.7684ZM28.5817 83.1619C29.3832 82.781 30.0701 82.3619 30.6808 81.9048C31.3296 82.381 32.0547 82.781 32.8561 83.1429C32.5699 83.1619 32.1501 83.1619 31.5013 83.1619H28.5817ZM29.4977 78.3048H31.7875C31.4631 78.8571 31.1006 79.3714 30.6426 79.8476C30.1465 79.4286 29.7457 78.9524 29.4023 78.419L29.4977 78.3048ZM37.7983 74.4381C37.6266 74.9524 37.493 75.3905 37.2641 75.8667C36.1 75.8667 35.6612 75.8286 35.5658 75.8286C35.3559 75.8286 35.3368 75.8476 35.3368 76.0381C35.3368 76.1524 35.3749 76.8 35.3749 78.3238V83.3143C35.3749 84.7619 35.3368 85.4095 35.3368 85.5048C35.3368 85.7143 35.3559 85.7333 35.5658 85.7333C35.6802 85.7333 36.1955 85.6952 37.7411 85.6952H40.1836C41.7102 85.6952 42.2445 85.7333 42.378 85.7333C42.5689 85.7333 42.5879 85.7143 42.5879 85.5048C42.5879 85.4095 42.5498 84.7619 42.5498 83.3143V78.2476C42.5498 76.8 42.5879 76.1333 42.5879 76.0381C42.5879 75.8476 42.5689 75.8286 42.378 75.8286C42.2445 75.8286 41.7102 75.8667 40.1836 75.8667H39.1532C39.3631 75.4286 39.5539 74.9714 39.7447 74.4381H40.9087C42.6261 74.4381 43.1986 74.4762 43.313 74.4762C43.4848 74.4762 43.5039 74.4571 43.5039 74.2667V72.8762C43.5039 72.6857 43.4848 72.6667 43.313 72.6667C43.1986 72.6667 42.6261 72.7048 40.9087 72.7048H37.4549C35.7566 72.7048 35.1841 72.6667 35.0696 72.6667C34.8788 72.6667 34.8597 72.6857 34.8597 72.8762V74.2667C34.8597 74.4571 34.8788 74.4762 35.0696 74.4762C35.1841 74.4762 35.7566 74.4381 37.4549 74.4381H37.7983ZM40.7561 84.1143H37.1496V82.7619H40.7561V84.1143ZM37.1496 81.3333V80.0762H40.7561V81.3333H37.1496ZM40.7561 77.4476V78.6476H37.1496V77.4476H40.7561ZM39.3631 86.6476C39.1723 86.819 39.115 86.8571 39.2677 87.0095C40.0882 87.8286 41.0232 88.5905 42.1872 89.2C42.4162 89.3143 42.5307 89.3714 42.6452 89.3714C42.7788 89.3714 42.8742 89.2571 43.0459 88.9333C43.294 88.4952 43.5611 88.1143 43.8283 87.8667C42.7215 87.4476 41.5575 86.7619 40.5652 85.8857C40.3935 85.7524 40.2599 85.8095 40.1645 85.9048L39.3631 86.6476Z" fill="white"/>
<path d="M10.5111 106.762H9.72873C8.24033 106.762 7.76328 106.724 7.64879 106.724C7.45797 106.724 7.43889 106.743 7.43889 106.933V108.286C7.43889 108.457 7.45797 108.476 7.64879 108.476C7.76328 108.476 8.24033 108.438 9.72873 108.438H10.0722C9.36617 110.438 8.3739 112.152 7 113.733C7.22898 114 7.51521 114.59 7.68695 115.124C7.76328 115.352 7.83961 115.448 7.91594 115.448C8.01135 115.448 8.10676 115.333 8.25941 115.143C9.23259 113.81 9.99587 112.343 10.5683 110.8C10.5302 114.362 10.4348 117.505 10.4348 117.79C10.4348 117.981 10.4538 118 10.6447 118H12.2094C12.4193 118 12.4384 117.981 12.4384 117.79C12.4384 117.505 12.3048 114.095 12.3048 110.324C12.7628 111.371 13.2971 112.248 13.8504 113.048C13.984 113.238 14.0794 113.333 14.1558 113.333C14.2321 113.333 14.3084 113.219 14.4229 112.99C14.6328 112.533 14.8999 112.076 15.1862 111.733C14.1558 110.686 13.4116 109.752 12.6101 108.438C13.984 108.438 14.442 108.476 14.5565 108.476C14.7473 108.476 14.7664 108.457 14.7664 108.286V106.933C14.7664 106.743 14.7473 106.724 14.5565 106.724C14.442 106.724 13.9649 106.762 12.4956 106.762H12.343V103.181C12.343 101.886 12.362 101.486 12.4765 101.257C12.5338 101.124 12.591 101.029 12.591 100.857C12.591 100.781 12.4765 100.686 12.2857 100.667C11.6369 100.59 11.0645 100.552 10.3584 100.533C10.4729 101.39 10.5111 102 10.5111 103.219V106.762ZM17.5905 111.752C15.9304 112.076 15.3007 112.133 15.1098 112.171C14.919 112.21 14.8999 112.21 14.9381 112.419L15.1862 113.924C15.2053 114.095 15.2434 114.114 15.4342 114.076C15.6251 114.038 16.2357 113.905 17.8958 113.581L20.5101 113.067V114.476C20.5101 116.59 20.4719 117.638 20.4719 117.752C20.4719 117.943 20.491 117.962 20.6818 117.962H22.2656C22.4564 117.962 22.4755 117.943 22.4755 117.752C22.4755 117.657 22.4373 116.571 22.4373 114.457V112.686C23.754 112.419 24.2692 112.343 24.4028 112.305C24.6127 112.267 24.6127 112.248 24.5936 112.076L24.3646 110.59C24.3265 110.381 24.3265 110.362 24.1547 110.4C23.983 110.438 23.5441 110.571 22.4373 110.8V103.505C22.4373 102.095 22.4564 101.619 22.5518 101.39C22.6091 101.238 22.6663 101.143 22.6663 101.01C22.6663 100.895 22.5518 100.819 22.3801 100.8C21.7122 100.724 21.0825 100.686 20.3574 100.667C20.491 101.619 20.5101 102.21 20.5101 103.562V111.181L17.5905 111.752ZM15.4342 107.162C15.3388 107.257 15.2816 107.314 15.2816 107.371C15.2816 107.41 15.3388 107.448 15.4152 107.524C16.2929 108.229 17.1516 109.124 17.934 110.114C18.0676 110.267 18.1057 110.267 18.3156 110.076L19.2506 109.143C19.4415 108.952 19.4415 108.914 19.3079 108.743C18.5446 107.81 17.5523 106.914 16.6746 106.305C16.5792 106.229 16.541 106.19 16.4838 106.19C16.4456 106.19 16.4074 106.229 16.312 106.324L15.4342 107.162ZM15.9876 102.781C15.7968 102.952 15.8159 103.048 15.9495 103.143C16.7891 103.752 17.7622 104.648 18.5446 105.638C18.6591 105.81 18.6973 105.79 18.9072 105.581L19.8231 104.686C19.9948 104.533 19.9948 104.457 19.8804 104.324C19.1171 103.39 18.1439 102.571 17.1898 101.905C17.0181 101.79 16.999 101.829 16.8272 101.981L15.9876 102.781ZM12.7055 105.429C12.8773 105.486 13.1826 105.6 13.4688 105.752C13.6596 105.867 13.7741 105.924 13.8504 105.924C13.9649 105.924 14.0222 105.81 14.1367 105.524C14.4992 104.648 14.7855 103.886 15.0144 103.105C15.0717 102.895 15.1289 102.762 15.2434 102.686C15.3198 102.648 15.3579 102.59 15.3579 102.495C15.3579 102.4 15.3007 102.343 15.148 102.267C14.8045 102.095 14.213 101.905 13.6978 101.733C13.6787 102.019 13.6215 102.362 13.5833 102.552C13.4116 103.371 13.1062 104.438 12.7055 105.429ZM7.87777 102.248C7.62971 102.343 7.59154 102.381 7.66787 102.59C8.10676 103.6 8.43115 104.629 8.64105 105.771C8.67922 105.981 8.6983 106 8.98453 105.886L9.80505 105.581C10.0531 105.486 10.0913 105.429 10.0531 105.238C9.82414 104.133 9.51882 103.162 9.02269 102.038C8.92728 101.848 8.9082 101.829 8.67922 101.924L7.87777 102.248Z" fill="white"/>
<path d="M40.3172 117.295C42.0727 117.295 42.6643 117.333 42.7788 117.333C42.9696 117.333 42.9887 117.314 42.9887 117.143V115.695C42.9887 115.505 42.9696 115.486 42.7788 115.486C42.6643 115.486 42.0727 115.524 40.3172 115.524H35.6993V111.371H39.6684C41.4812 111.371 42.1109 111.41 42.2254 111.41C42.4353 111.41 42.4353 111.467 42.4353 111.2V109.771C42.4353 109.581 42.4162 109.562 42.2254 109.562C42.1109 109.562 41.4812 109.6 39.6684 109.6H35.6993V107.848H36.7298C38.3899 107.848 38.9623 107.867 39.0959 107.867C39.2867 107.867 39.3058 107.848 39.3058 107.676V106.533C40.2599 107.086 41.2713 107.562 42.3589 107.981C42.5688 108.057 42.7215 108.114 42.8169 108.114C42.9696 108.114 43.0268 107.981 43.1795 107.638C43.3894 107.105 43.7329 106.571 44 106.286C40.8515 105.41 38.1991 103.962 35.9474 101.314C35.9856 101.295 36.0237 101.276 36.0619 101.238C36.2145 101.124 36.2527 101.067 36.2527 100.971C36.2527 100.838 36.1001 100.724 35.9092 100.667C35.3559 100.476 34.5926 100.362 33.8484 100.267C33.6576 100.762 33.4477 101.048 33.0851 101.524C31.5585 103.543 29.1542 105.276 25.6813 106.648C25.9866 106.895 26.3301 107.276 26.5972 107.771C26.769 108.095 26.8453 108.21 26.9789 108.21C27.0933 108.21 27.2269 108.152 27.4368 108.057C28.4673 107.6 29.4404 107.124 30.3564 106.552V107.676C30.3564 107.848 30.3755 107.867 30.5663 107.867C30.6808 107.867 31.2532 107.848 32.9134 107.848H33.6576V109.6H30.0129C28.2001 109.6 27.5704 109.562 27.4559 109.562C27.246 109.562 27.2269 109.581 27.2269 109.771V111.2C27.2269 111.39 27.246 111.41 27.4559 111.41C27.5704 111.41 28.2001 111.371 30.0129 111.371H33.6576V115.524H29.3069C27.5704 115.524 26.9789 115.486 26.8644 115.486C26.6545 115.486 26.6354 115.505 26.6354 115.695V117.143C26.6354 117.314 26.6545 117.333 26.8644 117.333C26.9789 117.333 27.5704 117.295 29.3069 117.295H40.3172ZM32.9134 106.114C31.9974 106.114 31.425 106.114 31.0624 106.095C32.4363 105.181 33.6766 104.076 34.7834 102.724C35.8329 104.057 37.1114 105.162 38.5807 106.095C38.2182 106.114 37.6457 106.114 36.7298 106.114H32.9134ZM36.9587 114.762C37.3213 114.857 37.7602 115.067 38.0846 115.238C38.2945 115.333 38.4281 115.39 38.5235 115.39C38.6189 115.39 38.6952 115.314 38.8288 115.143C39.1532 114.686 39.573 113.962 39.8401 113.448C40.0309 113.086 40.1645 112.933 40.279 112.838C40.4126 112.743 40.508 112.686 40.508 112.533C40.508 112.419 40.3935 112.324 40.1645 112.21C39.7066 111.981 39.2486 111.79 38.5616 111.6C38.4853 111.962 38.3517 112.267 38.1991 112.61C37.8938 113.276 37.474 114.076 36.9587 114.762ZM29.3069 112.267C29.0588 112.381 29.0206 112.419 29.1542 112.59C29.7267 113.39 30.1083 114.267 30.4518 115.2C30.5281 115.39 30.5472 115.39 30.8334 115.276L32.0165 114.686C32.2455 114.571 32.2646 114.533 32.1882 114.343C31.8257 113.486 31.3296 112.552 30.8334 111.829C30.6998 111.638 30.6426 111.638 30.3945 111.752L29.3069 112.267Z" fill="white"/>
<g filter="url(#filter0_d_1041_1798)">
<path d="M129.848 80.4824V30.3161L100.627 80.4824H129.848ZM160.59 80.4824H175.96V105.819H160.59V132H129.848V105.819H68.3647V84.5362L117.011 4.6418H160.59V80.4824Z" fill="#093F68"/>
<path d="M200.737 99.7381H229.452L198.373 155.647H178.779L200.737 99.7381Z" fill="#093F68"/>
<path d="M280.437 93.4885C280.437 95.628 280.831 97.6549 281.619 99.5692C282.407 101.484 283.477 103.173 284.828 104.637C286.179 105.988 287.756 107.114 289.558 108.015C291.472 108.803 293.499 109.197 295.638 109.197C297.665 109.197 299.58 108.803 301.381 108.015C303.296 107.114 304.928 105.988 306.28 104.637C307.744 103.173 308.87 101.54 309.658 99.7381C310.446 97.8238 310.84 95.7969 310.84 93.6574C310.84 89.3783 309.32 85.7749 306.28 82.8471C303.352 79.8067 299.805 78.2866 295.638 78.2866C291.359 78.2866 287.756 79.8067 284.828 82.8471C281.9 85.7749 280.437 89.322 280.437 93.4885ZM281.619 37.0725C281.619 41.0138 282.97 44.392 285.673 47.2071C288.375 49.9097 291.697 51.261 295.638 51.261C297.665 51.261 299.523 50.8668 301.212 50.0786C302.902 49.2903 304.365 48.2769 305.604 47.0382C306.843 45.6869 307.8 44.1667 308.476 42.4776C309.264 40.7885 309.658 39.0431 309.658 37.2414C309.658 33.4128 308.307 30.1472 305.604 27.4446C302.902 24.6295 299.58 23.2219 295.638 23.2219C291.697 23.2219 288.375 24.5732 285.673 27.2757C282.97 29.9783 281.619 33.2439 281.619 37.0725ZM272.16 64.7738C258.872 59.256 252.229 49.9097 252.229 36.7347C252.229 31.3296 253.298 26.4875 255.438 22.2084C257.577 17.8168 260.505 14.0445 264.221 10.8915C268.05 7.73848 272.61 5.31743 277.903 3.62833C283.308 1.93924 289.22 1.09469 295.638 1.09469C302.057 1.09469 307.913 1.93924 313.205 3.62833C318.61 5.31743 323.171 7.73848 326.887 10.8915C330.715 14.0445 333.699 17.8168 335.839 22.2084C337.979 26.4875 339.048 31.3296 339.048 36.7347C339.048 40.1129 338.71 43.1533 338.035 45.8558C337.359 48.4458 336.177 50.8668 334.488 53.119C332.911 55.2585 330.772 57.2854 328.069 59.1997C325.479 61.114 322.214 62.9721 318.272 64.7738C335.614 71.5302 344.285 82.453 344.285 97.5423C344.285 102.947 343.046 107.958 340.568 112.575C338.204 117.192 334.826 121.19 330.434 124.568C326.155 127.946 321.031 130.592 315.063 132.507C309.208 134.421 302.733 135.378 295.638 135.378C288.769 135.378 282.351 134.421 276.383 132.507C270.527 130.705 265.404 128.115 261.012 124.737C256.62 121.359 253.186 117.361 250.708 112.744C248.231 108.127 246.992 103.06 246.992 97.5423C246.992 82.1152 255.382 71.1923 272.16 64.7738Z" fill="#093F68"/>
<path d="M389.162 68.152C389.162 73.7823 389.669 78.9059 390.682 83.5228C391.695 88.1396 393.103 92.1372 394.905 95.5154C396.819 98.8936 399.071 101.54 401.661 103.454C404.251 105.256 407.179 106.157 410.444 106.157C413.597 106.157 416.469 105.256 419.059 103.454C421.761 101.54 424.014 98.8936 425.815 95.5154C427.617 92.1372 429.025 88.1396 430.038 83.5228C431.051 78.9059 431.558 73.7823 431.558 68.152C431.558 62.6342 431.051 57.5669 430.038 52.9501C429.025 48.2206 427.617 44.223 425.815 40.9575C424.014 37.5793 421.761 34.9893 419.059 33.1876C416.469 31.2733 413.597 30.3161 410.444 30.3161C407.179 30.3161 404.251 31.2733 401.661 33.1876C399.071 34.9893 396.819 37.5793 394.905 40.9575C393.103 44.223 391.695 48.2206 390.682 52.9501C389.669 57.5669 389.162 62.6342 389.162 68.152ZM356.393 68.152C356.393 58.0174 357.688 48.8399 360.278 40.6196C362.981 32.2867 366.697 25.1925 371.426 19.337C376.268 13.4814 381.955 8.97716 388.486 5.82417C395.13 2.55858 402.449 0.925781 410.444 0.925781C418.327 0.925781 425.59 2.55858 432.234 5.82417C438.878 8.97716 444.564 13.4814 449.294 19.337C454.023 25.1925 457.683 32.2867 460.273 40.6196C462.975 48.8399 464.327 58.0174 464.327 68.152C464.327 78.2866 462.975 87.5203 460.273 95.8532C457.683 104.073 454.023 111.168 449.294 117.136C444.564 122.991 438.878 127.552 432.234 130.818C425.59 133.971 418.327 135.547 410.444 135.547C402.449 135.547 395.13 133.971 388.486 130.818C381.955 127.552 376.268 122.991 371.426 117.136C366.697 111.168 362.981 104.073 360.278 95.8532C357.688 87.5203 356.393 78.2866 356.393 68.152Z" fill="#093F68"/>
<path d="M503.968 68.152C503.968 73.7823 504.475 78.9059 505.488 83.5228C506.501 88.1396 507.909 92.1372 509.711 95.5154C511.625 98.8936 513.877 101.54 516.467 103.454C519.057 105.256 521.985 106.157 525.25 106.157C528.403 106.157 531.275 105.256 533.865 103.454C536.567 101.54 538.82 98.8936 540.621 95.5154C542.423 92.1372 543.831 88.1396 544.844 83.5228C545.857 78.9059 546.364 73.7823 546.364 68.152C546.364 62.6342 545.857 57.5669 544.844 52.9501C543.831 48.2206 542.423 44.223 540.621 40.9575C538.82 37.5793 536.567 34.9893 533.865 33.1876C531.275 31.2733 528.403 30.3161 525.25 30.3161C521.985 30.3161 519.057 31.2733 516.467 33.1876C513.877 34.9893 511.625 37.5793 509.711 40.9575C507.909 44.223 506.501 48.2206 505.488 52.9501C504.475 57.5669 503.968 62.6342 503.968 68.152ZM471.199 68.152C471.199 58.0174 472.494 48.8399 475.084 40.6196C477.787 32.2867 481.503 25.1925 486.232 19.337C491.074 13.4814 496.761 8.97716 503.292 5.82417C509.936 2.55858 517.255 0.925781 525.25 0.925781C533.133 0.925781 540.396 2.55858 547.04 5.82417C553.684 8.97716 559.37 13.4814 564.1 19.337C568.829 25.1925 572.489 32.2867 575.079 40.6196C577.781 48.8399 579.133 58.0174 579.133 68.152C579.133 78.2866 577.781 87.5203 575.079 95.8532C572.489 104.073 568.829 111.168 564.1 117.136C559.37 122.991 553.684 127.552 547.04 130.818C540.396 133.971 533.133 135.547 525.25 135.547C517.255 135.547 509.936 133.971 503.292 130.818C496.761 127.552 491.074 122.991 486.232 117.136C481.503 111.168 477.787 104.073 475.084 95.8532C472.494 87.5203 471.199 78.2866 471.199 68.152Z" fill="#093F68"/>
</g>
<path d="M643.875 92.3756C643.875 84.3377 644 80.1303 644 79.7536C644 79.0628 643.937 79 643.312 79C642.937 79 640.812 79.1256 634.875 79.1256H603.187C597.25 79.1256 595.125 79 594.687 79C594.062 79 594 79.0628 594 79.7536C594 80.1303 594.125 84.0865 594.125 92.1244V119.001C594.125 127.039 594 130.87 594 131.309C594 131.937 594.062 132 594.687 132H600.125C600.812 132 600.875 131.937 600.875 131.309C600.875 130.932 600.75 127.416 600.75 120.571V107.196H637.25V122.895C637.25 124.464 636.687 125.03 634.812 125.03C633.312 125.03 630.375 124.967 627.75 124.716C628.437 126.034 629 127.667 629.375 129.551C629.75 131.498 629.812 131.56 631.812 131.56C638.437 131.56 640.5 131.121 642 129.928C643.437 128.797 644 127.227 644 124.716C644 122.581 643.875 119.315 643.875 113.852V92.3756ZM637.25 85.2796V101.104H621.937V85.2796H637.25ZM600.75 101.104V85.2796H615.437V101.104H600.75Z" fill="#093F68"/>
<path d="M599.657 72.9065C598.349 71.2056 597.855 70.3645 597.419 69.0935C597.04 68.028 596.85 66.8318 596.85 65.486C596.85 64.028 597.059 62.7383 597.457 61.5794C597.912 60.3271 598.405 59.486 599.657 57.8411L596.679 55.7477C595.105 57.7664 594.422 58.9065 593.816 60.6262C593.284 62.1215 593 63.729 593 65.3738C593 67.6355 593.493 69.729 594.517 71.7477C595.067 72.8131 595.56 73.5421 596.679 75L599.657 72.9065Z" fill="#093F68"/>
<path d="M607.712 60.0841C607.371 60.1402 607.067 60.1589 606.385 60.1589H606.29V58.5327C607.219 58.2523 607.542 58.1402 608.224 57.8598C608.281 57.8411 608.376 57.8037 608.49 57.7477L606.555 55C606.271 55.1682 606.062 55.2617 605.74 55.3925C604.128 56.0093 602.61 56.3271 600.486 56.5327C601.074 57.6542 601.321 58.2897 601.624 59.486C602.307 59.3925 602.591 59.3551 603.009 59.2804V60.1589H602.136C601.453 60.1589 601.169 60.1402 600.733 60.0654V63.2991C601.188 63.2243 601.472 63.2056 602.136 63.2056H602.629C602.269 64.4953 601.434 65.9346 600.372 67.0561C600.998 68.1963 601.321 69 601.719 70.4206C602.326 69.6355 602.629 69.1308 603.028 68.1776C603.009 68.6822 603.009 68.7196 603.009 69.3738V70.5701C603.009 71.7103 602.99 72.3084 602.895 73.0748H606.404C606.309 72.3271 606.29 71.8037 606.29 70.5701V68.5701C606.29 68.028 606.29 68.028 606.271 67.5607C606.612 68.0841 606.821 68.3645 607.181 68.7196C607.598 67.4486 607.902 66.6822 608.338 65.8037C608.585 65.785 608.755 65.785 609.211 65.7664C609.211 65.8598 609.211 65.9346 609.211 65.9907C609.211 66.5701 608.945 67.5794 608.623 68.215C608.129 69.1869 607.447 69.8411 606.347 70.4206C607.447 71.5794 607.94 72.1963 608.547 73.1308C609.628 72.4953 610.235 71.9159 610.88 70.9439C611.733 69.6542 612.15 68.4206 612.416 66.4019L610.026 65.7664H612.757V70.9439C612.757 71.8411 612.985 72.3645 613.478 72.6262C613.876 72.8318 614.35 72.9065 615.394 72.9065C617.138 72.9065 617.821 72.7009 618.22 72.0654C618.485 71.6168 618.599 70.9065 618.694 68.7196C617.821 68.4953 617.252 68.2336 616.456 67.729V69.3925C616.456 69.729 616.418 69.8037 616.247 69.8037C616.038 69.8037 616.001 69.7664 616.001 69.5607V65.7664H616.361C617.006 65.7664 617.366 65.785 617.935 65.8411C617.878 65.3178 617.859 65.0561 617.859 64.4019V60.3271C617.859 59.7103 617.878 59.4112 617.935 58.8879C617.423 58.9439 617.214 58.9626 616.588 58.9626C616.949 58.2897 617.271 57.5981 617.689 56.6262C617.84 56.2523 617.897 56.1402 617.992 55.9907L614.483 55.0374C614.199 56.4019 613.8 57.6168 613.156 58.9626H610.955L612.776 58.1589C612.378 57.0748 611.999 56.2523 611.278 55.0374L608.129 56.1963C608.736 57.1682 609.116 57.8972 609.533 58.9626C608.755 58.9626 608.547 58.9439 607.997 58.8879C608.035 59.4112 608.054 59.8411 608.054 60.3271V64.4019C608.054 64.7757 608.054 64.9813 608.035 65.3738C607.39 64.7944 606.802 64.0467 606.366 63.2056C607.124 63.2056 607.333 63.2243 607.712 63.2804V60.0841ZM611.145 61.972H614.464V62.6822H611.145V61.972Z" fill="#093F68"/>
<path d="M624.82 64.1402C624.82 62.9813 624.839 62.5327 624.896 61.972C624.459 62.028 624.023 62.0467 623.435 62.0467H621.216C620.477 62.0467 620.173 62.028 619.604 61.9533V65.2804C620.135 65.2056 620.382 65.1869 620.723 65.1869H621.501V68.4206C620.325 69.0561 619.964 69.243 619.68 69.3738C619.642 69.3925 619.604 69.3925 619.585 69.4112C619.358 69.5234 619.301 69.5421 619.168 69.5794L620.59 73.1495C621.159 72.8131 622.354 71.8598 623.037 71.2056C623.682 71.8598 624.137 72.1589 624.858 72.4393C625.92 72.8318 626.773 72.9252 629.467 72.9252C632.463 72.9252 635.574 72.8879 637.091 72.8505C637.281 71.3738 637.432 70.6262 637.869 69.2804C636.939 69.3925 636.636 69.4299 635.896 69.486C636.484 68.1215 636.977 67.2804 637.793 66.1776C636.617 65.3738 636.124 64.9439 635.403 64.0654C634.701 63.2243 634.227 62.4579 633.81 61.4299C633.146 59.8224 632.805 58.271 632.805 56.8131C632.805 56.5701 632.805 56.3271 632.843 55.6168C632.482 55.6729 632.084 55.6916 631.496 55.6916H627.532C626.679 55.6916 626.299 55.6729 625.882 55.5981V58.8505C626.394 58.7944 626.868 58.7757 627.532 58.7757H629.22C629.125 59.5234 629.049 59.8785 628.936 60.3458C628.708 61.2056 628.329 62.1963 627.968 62.8505C627.153 64.3271 626.129 65.5047 624.82 66.4579V64.1402ZM624.82 67.1869C625.578 67.972 626.11 68.6075 626.811 69.5421C628.063 68.5514 628.613 68.0093 629.391 67.0187C630.206 65.9533 630.624 65.1869 631.211 63.7477C632.008 65.5607 632.729 66.6822 633.943 67.972C634.569 68.6262 634.91 68.9065 635.744 69.5047C633.924 69.6355 631.534 69.7103 629.523 69.7103C627.399 69.7103 626.47 69.6168 625.711 69.2991C625.237 69.0935 624.991 68.8692 624.82 68.4579V67.1869ZM619.263 57.7103C620.837 58.9813 621.709 59.8598 622.923 61.3738L625.503 58.7757C624.516 57.5421 623.549 56.6449 621.804 55.2804L619.263 57.7103Z" fill="#093F68"/>
<path d="M641.321 75C642.459 73.5421 642.933 72.8131 643.483 71.7477C644.507 69.729 645 67.6355 645 65.3738C645 63.729 644.734 62.1215 644.184 60.6262C643.578 58.9065 642.895 57.7664 641.321 55.7477L638.343 57.8411C639.614 59.486 640.088 60.3271 640.543 61.5794C640.941 62.7383 641.15 64.0093 641.15 65.486C641.15 66.8692 640.979 68.0093 640.6 69.0935C640.145 70.3645 639.651 71.2056 638.343 72.9065L641.321 75Z" fill="#093F68"/>
<defs>
<filter id="filter0_d_1041_1798" x="66.3647" y="0.925781" width="514.768" height="158.722" filterUnits="userSpaceOnUse" color-interpolation-filters="sRGB">
<feFlood flood-opacity="0" result="BackgroundImageFix"/>
<feColorMatrix in="SourceAlpha" type="matrix" values="0 0 0 0 0 0 0 0 0 0 0 0 0 0 0 0 0 0 127 0" result="hardAlpha"/>
<feOffset dy="2"/>
<feGaussianBlur stdDeviation="1"/>
<feComposite in2="hardAlpha" operator="out"/>
<feColorMatrix type="matrix" values="0 0 0 0 0 0 0 0 0 0 0 0 0 0 0 0 0 0 0.25 0"/>
<feBlend mode="normal" in2="BackgroundImageFix" result="effect1_dropShadow_1041_1798"/>
<feBlend mode="normal" in="SourceGraphic" in2="effect1_dropShadow_1041_1798" result="shape"/>
</filter>
</defs>
</svg>
