<svg width="24" height="24" viewBox="0 0 24 24" fill="none" xmlns="http://www.w3.org/2000/svg">
<path d="M5.425 19.5H18.575L17 8.5H7L5.425 19.5ZM12 7C12.4333 7 12.7917 6.85417 13.075 6.5625C13.3583 6.27083 13.5 5.91667 13.5 5.5C13.5 5.06667 13.3583 4.70833 13.075 4.425C12.7917 4.14167 12.4333 4 12 4C11.5833 4 11.2292 4.14167 10.9375 4.425C10.6458 4.70833 10.5 5.06667 10.5 5.5C10.5 5.91667 10.6458 6.27083 10.9375 6.5625C11.2292 6.85417 11.5833 7 12 7ZM14.6 7H17C17.3833 7 17.7167 7.12083 18 7.3625C18.2833 7.60417 18.45 7.91667 18.5 8.3L20.05 19.3C20.1167 19.75 20.0042 20.1458 19.7125 20.4875C19.4208 20.8292 19.0417 21 18.575 21H5.425C4.95833 21 4.57917 20.8292 4.2875 20.4875C3.99583 20.1458 3.88333 19.75 3.95 19.3L5.5 8.3C5.55 7.91667 5.71667 7.60417 6 7.3625C6.28333 7.12083 6.61667 7 7 7H9.4C9.26667 6.76667 9.16667 6.52917 9.1 6.2875C9.03333 6.04583 9 5.78333 9 5.5C9 4.66667 9.29167 3.95833 9.875 3.375C10.4583 2.79167 11.1667 2.5 12 2.5C12.8333 2.5 13.5417 2.79167 14.125 3.375C14.7083 3.95833 15 4.66667 15 5.5C15 5.78333 14.9667 6.04583 14.9 6.2875C14.8333 6.52917 14.7333 6.76667 14.6 7ZM5.425 19.5H18.575H5.425Z" fill="black"/>
</svg>
