<svg width="57" height="48" viewBox="0 0 57 48" fill="none" xmlns="http://www.w3.org/2000/svg">
<path fill-rule="evenodd" clip-rule="evenodd" d="M43.8127 18.0725C44.229 16.7525 44.4535 15.3475 44.4535 13.89C44.4535 6.21877 38.2347 0 30.5635 0C22.8922 0 16.6735 6.21877 16.6735 13.89C16.6735 15.3508 16.899 16.7589 17.317 18.0814C14.6274 17.6087 11.7753 17.8757 9.06925 19.0088C1.54498 22.1593 -2.00061 30.813 1.14995 38.3372C4.3005 45.8615 12.9542 49.4071 20.4784 46.2566C23.9549 44.8009 26.582 42.1705 28.0917 39.0195C29.9582 42.9166 33.5101 45.9637 38.0443 47.0272C45.9861 48.8899 53.9341 43.9619 55.7968 36.0202C57.6596 28.0785 52.7316 20.1304 44.7898 18.2677C44.464 18.1913 44.1381 18.1263 43.8127 18.0725Z" fill="#8BC4FE"/>
<path d="M35.64 33.6202C34.96 33.7602 34.34 33.8402 33.68 33.8402C32.5 33.8402 32.04 33.5402 31.74 32.7802L31.48 32.0202C34.4 31.3202 36.3 28.5402 36.3 24.2402C36.3 19.1202 33.64 16.2402 29.66 16.2402C25.7 16.2402 23 19.1602 23 24.2802C23 29.1002 25.4 31.9602 29 32.2202L29.44 33.4002C30.08 35.1402 30.94 35.7202 33.24 35.7202C34 35.7202 34.68 35.6802 35.36 35.5802L35.64 33.6202ZM29.66 18.3402C31.94 18.3402 33.44 20.2802 33.44 24.2602C33.44 28.2002 31.94 30.2202 29.66 30.2202C27.38 30.2202 25.86 28.2002 25.86 24.2602C25.86 20.2802 27.38 18.3402 29.66 18.3402Z" fill="white"/>
</svg>
