<svg width="88" height="36" viewBox="0 0 88 36" fill="none" xmlns="http://www.w3.org/2000/svg">
<path d="M36.2874 28.2187H39.7808L41.8826 20.3228H48.7559L49.466 17.6246H42.621L44.0696 12.1998H52.3062L53.0446 9.47321H41.3145L36.2874 28.2187Z" fill="#093F68"/>
<path d="M50.4547 28.2187H53.6074L55.3683 21.7146C55.9647 19.4708 57.1576 18.3347 58.5777 18.3347C59.4298 18.3347 60.0263 18.7323 60.3387 19.6412L62.9517 17.8519C62.5825 16.4885 61.418 15.6365 59.9695 15.6365C58.7198 15.6365 57.4417 16.2613 56.334 18.0507L56.9588 15.6933C56.4192 15.8637 55.9647 15.9205 54.8287 15.9205H53.7494L50.4547 28.2187Z" fill="#093F68"/>
<path d="M68.1286 28.5027C70.4576 28.5027 72.1618 27.6506 73.2978 26.0885L71.3949 24.6116C70.7132 25.5488 69.8044 26.0601 68.4979 26.0601C66.7085 26.0601 65.6861 24.8672 65.6861 23.3619V23.2767C66.7085 23.1915 67.8446 23.0495 68.8955 22.879C73.4115 22.1406 74.4907 20.8341 74.4907 18.9595C74.4907 16.9998 72.7014 15.6365 70.2304 15.6365C66.4245 15.6365 62.505 18.7323 62.505 23.2483C62.505 26.0885 64.7488 28.5027 68.1286 28.5027ZM69.8044 17.8235C71.0257 17.8235 71.5369 18.4483 71.5369 19.1584C71.5369 20.266 70.7132 20.8341 68.5831 21.2317C67.8162 21.3737 66.9074 21.4873 65.9985 21.5725C66.5097 19.2436 68.1855 17.8235 69.8044 17.8235Z" fill="#093F68"/>
<path d="M81.5809 28.5027C83.9098 28.5027 85.614 27.6506 86.7501 26.0885L84.8471 24.6116C84.1655 25.5488 83.2566 26.0601 81.9501 26.0601C80.1608 26.0601 79.1383 24.8672 79.1383 23.3619V23.2767C80.1608 23.1915 81.2968 23.0495 82.3477 22.879C86.8637 22.1406 87.943 20.8341 87.943 18.9595C87.943 16.9998 86.1536 15.6365 83.6826 15.6365C79.8767 15.6365 75.9572 18.7323 75.9572 23.2483C75.9572 26.0885 78.201 28.5027 81.5809 28.5027ZM83.2566 17.8235C84.4779 17.8235 84.9891 18.4483 84.9891 19.1584C84.9891 20.266 84.1655 20.8341 82.0353 21.2317C81.2684 21.3737 80.3596 21.4873 79.4507 21.5725C79.9619 19.2436 81.6377 17.8235 83.2566 17.8235Z" fill="#093F68"/>
<circle cx="17.6472" cy="17.6472" r="17.6472" fill="#4DA4FD"/>
<path d="M23.9841 25.5563H11L15 21.4065C16.0553 20.3085 16.8824 19.3815 17.4813 18.6257C18.0803 17.8557 18.5223 17.2068 18.8075 16.6792C19.107 16.1516 19.2924 15.7238 19.3637 15.3958C19.435 15.0678 19.4707 14.7897 19.4707 14.5615C19.4707 14.3191 19.4279 14.0838 19.3423 13.8557C19.271 13.6275 19.1569 13.4278 19.0001 13.2567C18.8432 13.0713 18.6507 12.9287 18.4225 12.8289C18.2086 12.7148 17.9519 12.6578 17.6525 12.6578C17.082 12.6578 16.6328 12.8432 16.3049 13.2139C15.9911 13.5847 15.8343 14.0482 15.8343 14.6043C15.8343 14.7612 15.8557 14.9894 15.8984 15.2888H11.3209C11.3209 14.3476 11.4706 13.492 11.7701 12.722C12.0838 11.9519 12.5187 11.2888 13.0749 10.7326C13.631 10.1765 14.287 9.74867 15.0428 9.4492C15.8129 9.14973 16.6542 9 17.5669 9C18.4653 9 19.2924 9.1426 20.0482 9.42781C20.8183 9.71302 21.4814 10.1123 22.0375 10.6257C22.5937 11.1391 23.0286 11.7522 23.3423 12.4653C23.6561 13.164 23.8129 13.927 23.8129 14.7541C23.8129 15.6382 23.6204 16.4582 23.2354 17.214C22.8646 17.9555 22.2657 18.7184 21.4386 19.5028L18.7648 22.0055H23.9841V25.5563Z" fill="white"/>
</svg>
