<svg width="88" height="36" viewBox="0 0 88 36" fill="none" xmlns="http://www.w3.org/2000/svg">
<path d="M36.2874 28.2187H39.7808L41.8826 20.3228H48.7559L49.466 17.6246H42.621L44.0696 12.1998H52.3062L53.0446 9.47321H41.3145L36.2874 28.2187Z" fill="#093F68"/>
<path d="M50.4547 28.2187H53.6074L55.3683 21.7146C55.9647 19.4708 57.1576 18.3347 58.5777 18.3347C59.4298 18.3347 60.0263 18.7323 60.3387 19.6412L62.9517 17.8519C62.5825 16.4885 61.418 15.6365 59.9695 15.6365C58.7198 15.6365 57.4417 16.2613 56.334 18.0507L56.9588 15.6933C56.4192 15.8637 55.9647 15.9205 54.8287 15.9205H53.7494L50.4547 28.2187Z" fill="#093F68"/>
<path d="M68.1286 28.5027C70.4576 28.5027 72.1618 27.6506 73.2978 26.0885L71.3949 24.6116C70.7132 25.5488 69.8044 26.0601 68.4979 26.0601C66.7085 26.0601 65.6861 24.8672 65.6861 23.3619V23.2767C66.7085 23.1915 67.8446 23.0495 68.8955 22.879C73.4115 22.1406 74.4907 20.8341 74.4907 18.9595C74.4907 16.9998 72.7014 15.6365 70.2304 15.6365C66.4245 15.6365 62.505 18.7323 62.505 23.2483C62.505 26.0885 64.7488 28.5027 68.1286 28.5027ZM69.8044 17.8235C71.0257 17.8235 71.5369 18.4483 71.5369 19.1584C71.5369 20.266 70.7132 20.8341 68.5831 21.2317C67.8162 21.3737 66.9074 21.4873 65.9985 21.5725C66.5097 19.2436 68.1855 17.8235 69.8044 17.8235Z" fill="#093F68"/>
<path d="M81.5809 28.5027C83.9098 28.5027 85.614 27.6506 86.7501 26.0885L84.8471 24.6116C84.1655 25.5488 83.2566 26.0601 81.9501 26.0601C80.1608 26.0601 79.1383 24.8672 79.1383 23.3619V23.2767C80.1608 23.1915 81.2968 23.0495 82.3477 22.879C86.8637 22.1406 87.943 20.8341 87.943 18.9595C87.943 16.9998 86.1536 15.6365 83.6826 15.6365C79.8767 15.6365 75.9572 18.7323 75.9572 23.2483C75.9572 26.0885 78.201 28.5027 81.5809 28.5027ZM83.2566 17.8235C84.4779 17.8235 84.9891 18.4483 84.9891 19.1584C84.9891 20.266 84.1655 20.8341 82.0353 21.2317C81.2684 21.3737 80.3596 21.4873 79.4507 21.5725C79.9619 19.2436 81.6377 17.8235 83.2566 17.8235Z" fill="#093F68"/>
<circle cx="17.6472" cy="17.6472" r="17.6472" fill="#4DA4FD"/>
<path d="M18.7862 19.6044V13.2514L15.0856 19.6044H18.7862ZM22.6792 19.6044H24.6258V22.8129H22.6792V26.1285H18.7862V22.8129H11V20.1177L17.1605 10H22.6792V19.6044Z" fill="white"/>
</svg>
