<svg width="88" height="36" viewBox="0 0 88 36" fill="none" xmlns="http://www.w3.org/2000/svg">
<path d="M36.2874 28.2186H39.7808L41.8826 20.3228H48.7559L49.466 17.6246H42.621L44.0696 12.1998H52.3062L53.0446 9.47314H41.3145L36.2874 28.2186Z" fill="#093F68"/>
<path d="M50.4547 28.2186H53.6074L55.3683 21.7145C55.9647 19.4707 57.1576 18.3346 58.5777 18.3346C59.4298 18.3346 60.0263 18.7323 60.3387 19.6411L62.9517 17.8518C62.5825 16.4885 61.418 15.6364 59.9695 15.6364C58.7198 15.6364 57.4417 16.2613 56.334 18.0506L56.9588 15.6932C56.4192 15.8636 55.9647 15.9204 54.8287 15.9204H53.7494L50.4547 28.2186Z" fill="#093F68"/>
<path d="M68.1286 28.5026C70.4576 28.5026 72.1618 27.6505 73.2978 26.0884L71.3949 24.6115C70.7132 25.5488 69.8044 26.06 68.4979 26.06C66.7085 26.06 65.6861 24.8671 65.6861 23.3618V23.2766C66.7085 23.1914 67.8446 23.0494 68.8955 22.879C73.4115 22.1405 74.4907 20.834 74.4907 18.9595C74.4907 16.9997 72.7014 15.6364 70.2304 15.6364C66.4245 15.6364 62.505 18.7323 62.505 23.2482C62.505 26.0884 64.7488 28.5026 68.1286 28.5026ZM69.8044 17.8234C71.0257 17.8234 71.5369 18.4482 71.5369 19.1583C71.5369 20.266 70.7132 20.834 68.5831 21.2317C67.8162 21.3737 66.9074 21.4873 65.9985 21.5725C66.5097 19.2435 68.1855 17.8234 69.8044 17.8234Z" fill="#093F68"/>
<path d="M81.5809 28.5026C83.9098 28.5026 85.614 27.6505 86.7501 26.0884L84.8471 24.6115C84.1655 25.5488 83.2566 26.06 81.9501 26.06C80.1608 26.06 79.1383 24.8671 79.1383 23.3618V23.2766C80.1608 23.1914 81.2968 23.0494 82.3477 22.879C86.8637 22.1405 87.943 20.834 87.943 18.9595C87.943 16.9997 86.1536 15.6364 83.6826 15.6364C79.8767 15.6364 75.9572 18.7323 75.9572 23.2482C75.9572 26.0884 78.201 28.5026 81.5809 28.5026ZM83.2566 17.8234C84.4779 17.8234 84.9891 18.4482 84.9891 19.1583C84.9891 20.266 84.1655 20.834 82.0353 21.2317C81.2684 21.3737 80.3596 21.4873 79.4507 21.5725C79.9619 19.2435 81.6377 17.8234 83.2566 17.8234Z" fill="#093F68"/>
<circle cx="17.6472" cy="17.6472" r="17.6472" fill="#4DA4FD"/>
<path d="M22.845 12.5508H17.2621L16.984 14.3262C17.2407 14.2977 17.476 14.2763 17.6899 14.2621C17.9038 14.2336 18.1248 14.2193 18.353 14.2193C19.1658 14.2193 19.9216 14.3619 20.6204 14.6471C21.3191 14.9323 21.9181 15.3245 22.4172 15.8236C22.9163 16.3227 23.3085 16.9216 23.5937 17.6204C23.8789 18.3191 24.0215 19.0821 24.0215 19.9092C24.0215 20.7791 23.8575 21.5634 23.5295 22.2621C23.2158 22.9609 22.7666 23.5598 22.1819 24.0589C21.5972 24.5438 20.8842 24.9146 20.0428 25.1712C19.2015 25.4422 18.2674 25.5777 17.2407 25.5777C16.271 25.5777 15.3441 25.4565 14.4599 25.214C13.59 24.9859 12.7701 24.6294 12 24.1445L12.6203 20.2086C13.3333 20.8218 14.0606 21.2924 14.8022 21.6204C15.5437 21.9341 16.2496 22.091 16.9198 22.091C17.7754 22.091 18.4528 21.8628 18.9519 21.4065C19.451 20.9359 19.7006 20.3584 19.7006 19.6739C19.7006 18.8753 19.3655 18.2336 18.6952 17.7487C18.025 17.2496 17.148 17.0001 16.0642 17.0001C15.5794 17.0001 15.0802 17.0571 14.5669 17.1712C14.0535 17.271 13.5472 17.435 13.0481 17.6632L14.3957 9H22.845V12.5508Z" fill="white"/>
</svg>
