<svg width="88" height="36" viewBox="0 0 88 36" fill="none" xmlns="http://www.w3.org/2000/svg">
<path d="M36.2874 28.2187H39.7808L41.8826 20.3228H48.7559L49.466 17.6246H42.621L44.0696 12.1998H52.3062L53.0446 9.47321H41.3145L36.2874 28.2187Z" fill="#093F68"/>
<path d="M50.4547 28.2187H53.6074L55.3683 21.7146C55.9647 19.4708 57.1576 18.3347 58.5777 18.3347C59.4298 18.3347 60.0263 18.7323 60.3387 19.6412L62.9517 17.8519C62.5825 16.4885 61.418 15.6365 59.9695 15.6365C58.7198 15.6365 57.4417 16.2613 56.334 18.0507L56.9588 15.6933C56.4192 15.8637 55.9647 15.9205 54.8287 15.9205H53.7494L50.4547 28.2187Z" fill="#093F68"/>
<path d="M68.1286 28.5027C70.4576 28.5027 72.1618 27.6506 73.2978 26.0885L71.3949 24.6116C70.7132 25.5488 69.8044 26.0601 68.4979 26.0601C66.7085 26.0601 65.6861 24.8672 65.6861 23.3619V23.2767C66.7085 23.1915 67.8446 23.0495 68.8955 22.879C73.4115 22.1406 74.4907 20.8341 74.4907 18.9595C74.4907 16.9998 72.7014 15.6365 70.2304 15.6365C66.4245 15.6365 62.505 18.7323 62.505 23.2483C62.505 26.0885 64.7488 28.5027 68.1286 28.5027ZM69.8044 17.8235C71.0257 17.8235 71.5369 18.4483 71.5369 19.1584C71.5369 20.266 70.7132 20.8341 68.5831 21.2317C67.8162 21.3737 66.9074 21.4873 65.9985 21.5725C66.5097 19.2436 68.1855 17.8235 69.8044 17.8235Z" fill="#093F68"/>
<path d="M81.5809 28.5027C83.9098 28.5027 85.614 27.6506 86.7501 26.0885L84.8471 24.6116C84.1655 25.5488 83.2566 26.0601 81.9501 26.0601C80.1608 26.0601 79.1383 24.8672 79.1383 23.3619V23.2767C80.1608 23.1915 81.2968 23.0495 82.3477 22.879C86.8637 22.1406 87.943 20.8341 87.943 18.9595C87.943 16.9998 86.1536 15.6365 83.6826 15.6365C79.8767 15.6365 75.9572 18.7323 75.9572 23.2483C75.9572 26.0885 78.201 28.5027 81.5809 28.5027ZM83.2566 17.8235C84.4779 17.8235 84.9891 18.4483 84.9891 19.1584C84.9891 20.266 84.1655 20.8341 82.0353 21.2317C81.2684 21.3737 80.3596 21.4873 79.4507 21.5725C79.9619 19.2436 81.6377 17.8235 83.2566 17.8235Z" fill="#093F68"/>
<circle cx="17.6472" cy="17.6472" r="17.6472" fill="#4DA4FD"/>
<path d="M16.6899 15.738C16.804 15.7523 16.8967 15.7594 16.968 15.7594C17.0535 15.7594 17.1248 15.7594 17.1819 15.7594C17.7095 15.7594 18.1373 15.6025 18.4653 15.2888C18.7933 14.9751 18.9573 14.5687 18.9573 14.0696C18.9573 13.5847 18.8004 13.1925 18.4867 12.8931C18.1872 12.5936 17.7951 12.4439 17.3102 12.4439C16.7968 12.4439 16.3833 12.615 16.0696 12.9573C15.7558 13.2995 15.599 13.7416 15.599 14.2835H11.7273C11.8271 13.4421 12.0339 12.6934 12.3476 12.0375C12.6756 11.3815 13.0891 10.8325 13.5883 10.3904C14.0874 9.93405 14.672 9.5918 15.3423 9.36364C16.0125 9.12121 16.7541 9 17.5669 9C18.3655 9 19.0856 9.11408 19.7273 9.34225C20.3833 9.55615 20.9395 9.86988 21.3958 10.2834C21.8664 10.6827 22.2229 11.1747 22.4653 11.7594C22.722 12.3298 22.8504 12.9715 22.8504 13.6845C22.8504 14.4546 22.7006 15.0892 22.4012 15.5883C22.116 16.0731 21.7024 16.4938 21.1605 16.8503C21.9876 17.107 22.6293 17.5705 23.0857 18.2407C23.5562 18.8967 23.7915 19.7095 23.7915 20.6792C23.7915 21.4778 23.6347 22.2051 23.321 22.8611C23.0072 23.517 22.5652 24.0803 21.9947 24.5509C21.4386 25.0215 20.7683 25.3852 19.984 25.6418C19.214 25.8985 18.3655 26.0269 17.4386 26.0269C16.1979 26.0269 15.0785 25.7844 14.0802 25.2996C13.082 24.8147 12.2834 24.0447 11.6845 22.9894C11.4136 22.5188 11.2282 22.0482 11.1283 21.5776C11.0428 21.107 11 20.6293 11 20.1445H15.1498C15.1783 20.9003 15.3993 21.4778 15.8129 21.8771C16.2264 22.2621 16.7826 22.4547 17.4813 22.4547C18.2229 22.4547 18.7648 22.255 19.107 21.8557C19.4493 21.4564 19.6204 20.9644 19.6204 20.3798C19.6204 19.681 19.4136 19.1534 19.0001 18.7969C18.5865 18.4404 18.0945 18.2621 17.5241 18.2621C17.3815 18.2621 17.246 18.2764 17.1177 18.3049C16.9894 18.3191 16.8467 18.3405 16.6899 18.3691V15.738Z" fill="white"/>
</svg>
