<svg width="30" height="30" viewBox="0 0 30 30" fill="none" xmlns="http://www.w3.org/2000/svg">
<path d="M8.96875 27.4688C8.34375 27.4688 7.8125 27.25 7.375 26.8125C6.9375 26.375 6.71875 25.8438 6.71875 25.2188C6.71875 24.5938 6.9375 24.0625 7.375 23.625C7.8125 23.1875 8.34375 22.9688 8.96875 22.9688C9.57292 22.9688 10.099 23.1875 10.5469 23.625C10.9948 24.0625 11.2188 24.5938 11.2188 25.2188C11.2188 25.8438 11 26.375 10.5625 26.8125C10.125 27.25 9.59375 27.4688 8.96875 27.4688ZM21.4688 27.4688C20.8438 27.4688 20.3125 27.25 19.875 26.8125C19.4375 26.375 19.2188 25.8438 19.2188 25.2188C19.2188 24.5938 19.4375 24.0625 19.875 23.625C20.3125 23.1875 20.8438 22.9688 21.4688 22.9688C22.0729 22.9688 22.599 23.1875 23.0469 23.625C23.4948 24.0625 23.7188 24.5938 23.7188 25.2188C23.7188 25.8438 23.5 26.375 23.0625 26.8125C22.625 27.25 22.0938 27.4688 21.4688 27.4688ZM7.34375 6.84375L10.7812 13.9688H19.7812L23.6875 6.84375H7.34375ZM6.40625 4.96875H24.8125C25.4792 4.96875 25.901 5.17188 26.0781 5.57812C26.2552 5.98438 26.1979 6.4375 25.9062 6.9375L21.6875 14.5312C21.4792 14.8854 21.1875 15.1927 20.8125 15.4531C20.4375 15.7135 20.0312 15.8438 19.5938 15.8438H10.125L8.375 19.0938H23.7188V20.9688H8.65625C7.78125 20.9688 7.15104 20.6771 6.76562 20.0938C6.38021 19.5104 6.38542 18.8542 6.78125 18.125L8.78125 14.4375L4.03125 4.375H1.59375V2.5H5.25L6.40625 4.96875ZM10.7812 13.9688H19.7812H10.7812Z" fill="white"/>
</svg>
